<?xml version="1.0" encoding="UTF-8"?>
<svg xmlns="http://www.w3.org/2000/svg" version="1.1" xmlns:xlink="http://www.w3.org/1999/xlink" viewBox="0 0 800 800">
  <defs>
    <style>
      .cls-1 {
        isolation: isolate;
      }

      .cls-2, .cls-3, .cls-4, .cls-5, .cls-6, .cls-7 {
        stroke-width: 0px;
      }

      .cls-2, .cls-6 {
        fill: #81858f;
      }

      .cls-3 {
        fill: #332b2f;
      }

      .cls-8 {
        mix-blend-mode: multiply;
        opacity: .21;
      }

      .cls-4 {
        fill: #14161a;
      }

      .cls-5 {
        fill: url(#radial-gradient);
      }

      .cls-6 {
        fill-rule: evenodd;
      }

      .cls-7 {
        fill: #9d9fa5;
      }
    </style>
    <radialGradient id="radial-gradient" cx="408.07" cy="359.05" fx="408.07" fy="359.05" r="822.63" gradientTransform="translate(-.81 -.82)" gradientUnits="userSpaceOnUse">
      <stop offset="0" stop-color="#fff"/>
      <stop offset="1" stop-color="#b47a2b"/>
    </radialGradient>
  </defs>
  <g class="cls-1">
    <g id="Background">
      <g class="cls-8">
        <polygon class="cls-5" points="-.75 -4.09 799.25 -4.09 799.25 795.91 -.75 795.91 -.75 -4.09 -.75 -4.09"/>
      </g>
    </g>
    <g id="Objects">
      <g>
        <g>
          <path class="cls-2" d="M464.32,164.4c6.25,3.33,13.02.88,19.33-1.02,6.58-1.99,14.97-4.59,19.92,1.59,0,.01.01.03.02.04-.19.5.53.77.75.3,2.24-4.64-1.76-14.43-6.41-16.5.16-.31.28-.65.34-1.03.22-1.39-.48-2.72-1.45-3.64-1.08-1.04-2.74-1.33-4.16-.91-.08.02-.16.05-.24.08.01-.07,0-.14-.03-.23-1.39-2.8-1.7-6.09.97-8.3.4-.33.26-1.12-.32-1.14-5.43-.23-7.25,3.92-9.53,7.84-.21-.24-.34-.38-.46-.48,3.72-3.93,3.15-9.61.45-14.11-2.04-3.4-7.88-10.08-12.72-9.01-.26-.07-.5.03-.67.2-.06.02-.11.03-.16.06-.27.12-.35.54-.08.71.03.02.07.04.1.06.05.08.11.15.21.21,2.48,1.51,4.46,2.95,5.71,5.67,1.37,2.99.46,6.54-.74,9.41-2.04,4.85-6.7,8.17-10.23,11.87-4.65,4.88-8.22,14.26-.59,18.33h0ZM478.01,149.22h0c.07.21.15.41.24.61-.93,2.09-2.08,3.98-4.23,4.99-3.64,1.72-6.55-1.21-4.99-4.34,1.4-2.91,5.51-4.17,8.95-1.28.01.01.03,0,.04.01h0Z"/>
          <path class="cls-4" d="M463.57,149.99h0c2.89-4.43,7.57-7.44,10.87-11.56,3.97-4.97,4.97-12.06,1.55-16.74,1.91,1.25,3.53,2.91,4.92,4.7,3.31,4.27,4.8,10.09.58,14.31-.4.4-.28,1.07.33,1.17.33.14.66.29.99.43.06.04.11.07.17.09-.07.11-.13.21-.2.32-.34-.18-.81-.14-1.09.2-.94,1.11-1.59,2.46-2.18,3.87-1.85-1.03-3.92-1.47-5.88-1.18,3.31-2.53,6.64-5.34,6.89-9.82.02-.27-.35-.38-.46-.12-.88,2.03-1.96,3.65-3.22,5.08-2.3,1.13-4.86,2.57-7.14,4.29,2.09-1.81,4.37-3.46,6.39-5.34.17-.16,0-.5-.22-.37-3.43,1.93-9.27,6.32-12.58,11.14.09-.16.19-.31.29-.46h0ZM468.93,163.31h0c4.39-.04,8.84-2.36,12.7-4.21,3.44-1.65,7.31-4.5,11.13-5.08.2-.03.15-.31-.04-.3-2.71.12-5.29,1.41-7.73,2.49-2.21.97-4.36,2.03-6.56,2.99,1.74-1.62,3.34-3.52,5.02-4.95.15-.13-.03-.35-.19-.24-.15.11-.3.22-.45.33,1.45-2.01,2.51-4.29,3.04-6.43.04-.19-.25-.25-.32-.08-1.91,4.77-5.75,9.42-10.88,10.65,2.33-.85,4.23-2.74,5.68-4.97.49-.58.94-1.17,1.35-1.71.03-.04-.03-.08-.06-.04-.2.21-.4.42-.61.64.76-1.35,1.37-2.77,1.83-4.14.03-.11-.12-.2-.18-.1-2.08,3.62-4.37,7.48-8.46,8.85-.75.2-1.51.31-2.3.27-.3-.01-.6-.07-.89-.16,2.06.08,4.43-.92,5.73-1.94,2.92-2.29,3.46-6.39,5.17-9.6.33.14.77.07,1.01-.24,2.62-3.42,3.83-9.5,8.41-10.32-2.12,2.45-1.95,6.55-.7,9.36-1.45,1.18-1.27,4.64-.71,3.73.22-2.21,2.27-4.06,4.56-3.57,2,.42,3.34,2.99,1.48,4.99-1.31,1.42-2.73.66-2.53,1.56-.19.59,1.79.32,3.87.74,4.95,1.01,7.87,8.06,6.45,12.67-.01.03-.02.06-.04.09-5.34-7.96-15.05-4.07-24.14-1.55.04-.02.08-.04.11-.06,6.26-3.27,11.83-7.12,19.19-5.79.07.01.09-.09.03-.12-8.62-4.62-17.35,5.33-25.54,6.51-1.69.24-3.46.14-5.12-.3.23.01.45.02.69.02h0Z"/>
          <path class="cls-2" d="M457.63,158.22c1.06,2.58,2.05,4.1,3.49,5.81,4.21,4.99,9.64,9.32,15.36,11.92,12.92,5.94,26.8,7.88,40.88,2.58,7.52-2.83,13.76-8.13,14.8-16.53.58-4.65-1.1-9.71-4.64-12.8-3.46-3.01-9.21-2.59-12.5.39-3.26,2.95-3.38,8.38-1.32,12.01-.41-.31-.94-.54-1.61-.66-2.85-.52-4.62,2.19-3.2,4.27-3.91,5.81-18.56,5.07-24.58,3.94-5.86-.8-11-3.39-15.25-6.88-.97-.51-1.48.84-.79,1.46,6.59,5.96,14.67,8.75,23.41,9.37,6.17.44,15.02.03,20.31-3.77,1.78-1.28,3.83-3.52,2.57-6.39,1.7,1.99,4.34,2.99,7.52,1.85.86-.31,1.57-.75,2.26-1.27.01-.02.02-.05.04-.07.04-.08.07-.15.1-.23.01-.03.03-.06.05-.09.2-.85-.22-1.36-1-1.6-1.79.6-3.29-1.36-3.64-3.33-.41-2.25,2.15-3.43,4-2.91.19.05.38.13.55.21.06.03.12.05.17.09,0,0,.01,0,.02,0,4.07,2.1,3.21,7.51,1.6,10.61-2.79,4.78-8.5,7.85-14.88,9.45-8.74,2.2-18.77,1.73-24.74-.14-10.79-3.38-21.72-10.01-27.65-18.43-.77-.78-2.33-1.72-1.32,1.12h0Z"/>
          <path class="cls-4" d="M507.11,170.27c-4.34,1.78-9.91,2.25-14.39,2.08-4.92-.18-10.51-1.19-8.94-1.63,2.33.38,9.13.93,13.99.29,4.57-.6,8.79-1.99,9.69-3.91.03.02.05.05.08.07.35.26.86-.21.55-.5-.16-.15-.29-.3-.39-.45,0-.02,0-.04,0-.06,0-.1-.06-.16-.14-.18-.42-.9.34-1.62,1.67-1.79.97-.1,1.68.36,1.86.76,1.17,2.57-1.95,4.48-3.98,5.32h0Z"/>
          <path class="cls-4" d="M459.66,159.89c5.98,7.3,15.64,13.08,24.59,15.97,9.12,2.94,18.95,3.16,29.03.54,4.22-1.1,8.6-3.55,11.54-6.34,4.2-3.98,6.21-12.12.38-15.93-2.24-1.46-5.19-.33-6.64,1.94-1.16,2.72.15,5.46,2.37,6.69-2.54.71-4.93-.14-6.24-3.56-1.38-3.59.08-7.93,3.56-9.57,4.74-2.24,9.25.66,11.25,5,2.26,4.91,1.14,10.25-1.77,14.57-6.84,10.15-23.15,12.08-34.19,10.69-6.34-.8-12.72-2.84-18.37-5.8-4.16-2.14-14.36-9.71-15.51-14.19h0Z"/>
          <path class="cls-2" d="M661.32,185.32c.76-1.02.64-2.96.43-4.23,1.56,1.22,4.33,1.8,6.02,1.43,2.58-.56,8.22-4.02,9.58-7.23.01-.11-.1-.18-.2-.14-5.21,2.29-6.06,1.47-10.97-1-.29-.14-1.84-.43-2.9-.76,1.65-1.42,4.06-2.01,6.15-2.21,1.33-.13-2.12-1.45-2.39-1.53-4.86-1.38-7.99-1.76-13.65,0-2.84.88-5.85,2.25-8.71,3.86.89-2.1.94-6.55-1.83-7.36-.77-.23-1.44-.12-1.96.24-.69-3.08-5.08-8.82-8.88-7.24-.46.06-.91.65-.18.73,4.17,3.83,5.83,8.97,4.23,14.44-1.61,5.51-6.35,8.95-11.4,11.14-9.58,4.16-23.73,4.32-32.56-2.36-2.91-2.2-3.46-1.09-.43,1.46,8.24,6.93,18.62,9.04,29.86,6.47,6.07-1.39,11.2-4.4,16.73-7.12,4.46-2.2,11.27-5.36,15.62-3.44-3.38,4.06,3.89,9.61,7.43,4.85h0Z"/>
          <path class="cls-4" d="M654.35,182.99c-.4-2.94,3.67-3.52,2.34-3.58-.6-.03-1.14-.09-1.57.06-3.5-2.02-8.06-.64-11.66.66-5.15,1.86-9.77,4.89-14.87,6.86-6.74,2.61-13.92,4.03-21.08,3,7.45.44,15.2-1.33,21.22-4.67,9.33-5.17,13.23-18,4.58-25.3,3.3.4,5.98,4.5,6.2,7.55.06.87,1.24.79,1.49.11,1.74-.68,2.95,1.08,2.95,2.83,0,3.59-3.7,6.76-6.69,8.02-.6.49,0,1.44.71,1.14,8.95-3.89,17.57-13.13,28.35-9.03-1.16.08-5.72,1.4-5.71,3.67.08.48.96.46,1.33.43,4.18-.36,6.94,3.38,11.19,3.29-1.11.83-2.23,1.66-3.5,2.29-3.52,1.65-5.59.58-8.66-1.21-.29-.17-1-.26-.72.38.67,1.52,1.24,3.25.39,4.79-1.55,3.03-6.13,2.03-6.28-1.29h0Z"/>
          <path class="cls-2" d="M426.11,106.08c-.04-.33-.31-.63-.72-.5-1.87.59-3.47,1.86-4.52,3.5-.28.44-.71,1.38-.89,2.29-1.01-1.98-2.9-3.81-4.44-4.96-2.34-1.73-5.04-2.96-7.6-4.31-2.9-1.52-5.79-3.16-8.02-5.59-1.66-1.81-2.33-3.91-2.41-6.29-.03-.95.15-2.1.4-2.55.11-.21-.19-.47-.35-.26-2.21,2.94-2.75,5.86-2.14,8.7-.63,14.31,15.74,18.11,15.4,18.51-.39.31-.5,1.46-.33,1.95-.49.76-.98,1.09-.93,2.29,0,.02.35-.07.36-.06-2.5.85-2.25,2.73-2.42,3.29-1.33.9-1.78,2.37-1.37,3.42.09.24.3.94.56.78,3.7-2.22,6.85-.51,9.05,2.75,2.24,3.33,2.08,7.39.98,11.11-2.17,7.37-10.37,13.8-17.94,14.24-.56.03-.67.67-.26.97,1.63,1.19,4.59.9,7.56.13,12.21-3.17,23.92-14.79,23.23-28.23-.24-4.72-2.04-9.31-3.8-14.24-.79-2.22-.56-4.6.63-6.55.09-.15.07-.29-.02-.39h0Z"/>
          <path class="cls-4" d="M418.9,138.39h0c.86-4.3-.09-8.52-3-11.81-2.49-2.82-6.1-3.48-9.13-1.45-.84-3.48,6.08-2.66,7.85-1.81,1.75.84,3.03,2.5,4,4.12,2.18,2.98,2.23,6.98,1.33,10.66-.59,2.95-2.15,5.39-4.05,7.56,1.44-2.2,2.47-4.66,2.99-7.26h0ZM407.62,109.58c-1.49,2.77,3.82,4.74-.76,2.1-4.45-2.56-8.92-5.33-9.96-11.5,2.51,4.11,6.22,6.86,10.72,9.4h0ZM408.64,110.23c2.15,1.54,5.05,2.86,7.24,4.86,1.7,1.55,2.85,3.8,3.12,5.96-1.92-2.9-4.41-5.05-7.58-4.83,0-.03,0-.05,0-.08-.08-.51-.12-1.04,0-1.55.11-.47.66-.78.62-1.26.44.32-4.04-.72-3.4-3.11h0ZM424.59,114.28h0c1.47,4.97,3.13,8.68,3.38,12.66.67,10.82-9.37,23.64-19.72,26.07,1.14-.79,2.14-1.59,2.89-2.17.54-.42,1.05-.86,1.54-1.32.09.09.21.13.35.08,3.74-1.58,6.49-6.15,7.76-9.83,1.34-3.97,1.62-8.73.75-12.95-.87-4.21-.83-6.87-3.07-10.53-2.69-4.4-8.07-6.05-12.39-9.11-3.06-2.17-6.05-4.6-8.15-7.74-1.65-2.48-2-5.08-1.49-7.67.11,1.2.46,2.41.76,3.16,1.03,2.56,3.29,4.37,5.51,5.89,2.82,1.94,5.99,3.37,8.98,5.03,1.48.82,2.88,1.73,4.15,2.85,1.74,1.56,2.88,3.22,3.85,5.45.3.34.64.17.82-.13.14-.22.1-.46.21-.63.16-1.06.3-2.48,1.14-3.74.67-1.02,1.65-1.89,2.75-2.46-1.11,2.05-.47,5.03-.01,7.1h0ZM410.23,118.72h0c1.02-3.9,7.1.36,7.58,2.52-.48-.43-.97-.79-1.46-1.04-1.23-.64-4.02-1.57-6.15-1.42.01-.02.03-.03.03-.06h0ZM408.18,121.74h0c.2-.99.96-1.5,1.69-1.77,1.77-.67,3.57-.02,5.07.84,2.2,1.26,3.84,3.33,4.59,5.49-2.13-3.78-7.09-5.71-11.4-4.44.02-.03.04-.07.05-.11h0Z"/>
          <path class="cls-2" d="M468.27,192.81c-2.77-1.69-3.73-5.56-.78-7.58.05-.03.1-.04.15-.04,0-.03,0-.06,0-.08.17.06.33.08.49.08.21.08.6.45.82.42,1.61.41,2.04-1.05,1.7-2.13-.75-2.42-4.25-4.74-4.78-5.33-.5,2.02-2.24,3.72-4.39,4.19-.02.02-.04.04-.06.06-.07.02-.15.04-.23.05-.49,0-1-.04-1.41-.23-.03-.01-.06-.03-.08-.04.02-.08.04-.16.09-.24,2.32-3.86-2.81-9.47-5.45-11.8-1.68-1.48-3.69-2.7-5.83-3.33-.71-.21-1.43-.27-2.15-.23,2.03.74,3.76,2.17,4.63,4.26,1.06,2.57.09,6.09,1.63,8.35.58.85,2.06.7,1.58,1.91-1.63,2.72-4.71,2.7-7.53,1.48-1.27-.55-3.94-2.53-5.38-3.47-.35.52-.75.97-1.09,1.31-1.43,1.44-3.68,2.54-5.75,2.56-.61-.13-1.2-.3-1.8-.48-.03-.02-.07-.04-.1-.06-.07-.34.05-.69.47-.9,5.96-2.88.21-10.77-3.29-12.92-4.91-3.01-11.49-2.91-16.8-1.23-4.89,1.54-14.29,10.48-9.05,15.82.29.29.64.53.98.78.01-.03.02-.07.04-.1.83-1.77,2.64-2.88,4.53-3.02,2.91-.56,6.17,1.27,7.25,4.03,1.62,4.17.37,9.74-3.98,11.63-4.58,1.99-9.82.32-13.35-2.99-4.15-4.09-5.24-10.32-4.61-15.91.76-6.73,4.29-13.08,8.19-17.35,4.11-4.57,9.62-7.5,15.43-9.23,4.23-1.26,10.31-2.55,12.83-6.58,1.36-2.17-.18-4.24-1.51-5.94-.03-.04-.06-.1-.08-.14.21,0,.43-.01.63-.08.03,0,.04,0,.07,0,.06,0,.12,0,.18,0,.42.08.84.17,1.26.25.02.02.03.03.05.05,3.41,1.01,7.39,4.55,7.04,8.3-.01.14-.05.26-.07.4,5.24,2,9.86,3.6,15.61,2.53,2.62-.48,5.07-1.65,7.12-3.35.57-.47,1.04-.98,1.44-1.5.04.07.08.13.13.19.12.1.21.22.26.37.1.25.23.48.38.69.04.07.06.11.05.08.01.02.03.05.04.07-.02.02-.04.04-.06.06,1.62,3.34-1.09,7.06-4,9,2.73-1.02,5.92.46,8.35,1.82,1.78,1,3.44,2.24,5.38,2.9,2.71.93,4.45-.61,6.04-2.56.03-.08.08-.15.15-.19.06-.07.12-.15.17-.22.2-.26.59-.06.61.23.04.57,0,1.08-.1,1.54.02,2.5-1.44,4.72-3.48,6.22-1.29.94-2.82,1.15-4.41,1.12,3.24,2.19,5.84,6.29,7.1,9.31,2.07,4.97,2.43,10.41-.8,14.94-2.44,3.42-6.87,4.46-10.48,2.26h0Z"/>
          <path class="cls-4" d="M453.3,180.73s-.05-.2-.05-.2c-1.57-.18-2.49-1.45-2.65-3.12-.15-1.53-.04-3.04-.42-4.54-.73-2.87-3.22-4.57-6.01-4.87-.86-.09-.92-1.09-.45-1.61.7-1.25,3.39-1.09,4.52-.96,2.88.31,5.49,2.11,7.64,3.94,2.06,1.76,3.87,3.99,5.02,6.45.62,1.32,1.41,3.42,1.16,5.09,1.99-1.29,3.21-2.93,2.3-5.76-.2-.63.74-1.08,1.06-.48.34.62.52,1.26.58,1.89,1.19,1.58,2.77,2.78,4.09,4.24,1.31,1.45,2.54,3.34,1.36,5.13,1.26-.23,2.49-1.07,3.21-2.23,2.3-3.67.33-8.31-3.24-12.1-2.41-2.55-4.24-3.34-6-4.08-.18-.11-.15-.46.1-.44,1.86.12,4.06,1.65,5.77,3.06,5.7,4.7,8.29,14.01.92,17.03-1.66.59-3.68.16-4.37-1.36-1.67,2.95-.5,5.68,2.81,6.66,3.74.57,6.55-1.98,8.12-5.25,1.65-3.78.82-8.15-.74-11.94-2.18-4.4-6.02-7.91-9.61-8.87-.34-.17-.71-.33-1.01-.57-.13-.11-.21-.18-.25-.26-.08-1.18,4.79-.23,6.01-.58,2.58,0,4.46-1.59,5.47-3.68-1.84,1.17-4.69,1.11-6.71.24-2.16-.94-4.01-2.51-5.99-3.76-1.92-1.21-3.67-1.61-5.69-1.52-.4-.03-.8-.03-1.19,0-.22-.01-.45-.04-.67-.04,0-.02,0-.04.02-.05-.04.02-.07.03-.11.05-.13,0-.26-.01-.39,0-.08,0-.15.02-.22.04-.04-.1-.04-.23.08-.29,1.92-.91,3.46-2.21,4.53-4.07.43-.75.6-1.49.69-2.24-.91,1.29-2.51,2.3-3.74,2.84-2.82,1.25-5.75,1.49-8.8,1.27-6.63-.48-13.39-3.15-19.84-.73-.37.19-.72.4-1.03.63-.5.37-1.1-.4-.69-.84,2.17-2.35,5.68-2.17,8.04-4.16,2.26-1.91-.02-5.44-1.59-6.92-.79-.74-1.75-1.28-2.65-1.88.87,1.61.97,3.54.02,5.38-1.56,3.05-5.51,4.58-8.49,5.72-3.62,1.39-7.45,2.09-10.97,3.74-6.51,3.03-11.57,8.34-14.46,14.91-2.28,5.18-3.36,11-1.86,16.55,1.59,5.86,6.52,9.88,12.59,9.79,5.83-.08,8.6-7.47,5.42-11.83,2.12,4.19.09,10.69-5.43,10.25-.33-.02-.39-.41-.09-.55,2.75-1.24,5.05-2.4,5.06-5.85.01-1.78-.86-3.57-2.2-4.71-2.03-1.74-5.15-.74-6.28,1.19-.83,1.94-.11,3.56.88,4.35.12.28-.28.49-.48.32h-.02c-.96-.18-1.53-.71-1.82-1.41-3.72-2.48-4.26-7.71-2.92-11.37,1.71-4.44,6.68-9.38,12.26-11.05,6.44-1.93,14.11-.88,19.32,3.54,3.31,2.81,5.76,9.42,2.65,12.95,1.05-.35,2.02-.88,2.96-1.56.8-.58,1.43-1.35,1.9-2.21.4-.74.23-1.51.47-2.26.09-.27.41-.34.58-.1.56.77.43,1.72,0,2.61,2.42,1.66,8.28,7,11.53,2.46h0ZM462.39,147.6h0c-1.99,1.56-4.31,2.72-6.11,3.27-2.1.64-4.59.94-7.12.85.25.05.5.1.76.14,2.39.39,4.82.46,7.19-.08,1.93-.44,3.27-1.53,4.62-2.76.3-.43.52-.9.67-1.42h0Z"/>
          <path class="cls-7" d="M453.99,191.15c-.3-.28.13-.75.43-.47.3.28-.13.75-.43.47h0Z"/>
          <path class="cls-2" d="M424.77,162.77c-4.62-.55-8.75-.31-13.33.81-2.43.71-4.79,1.96-6.89,3.22-.42.25-1.64,1.19-2.36,1.39-.04-.03-.09-.06-.09-.11-.05-.34.92-1.24,1.57-1.79,1.96-1.65,5.58-3.4,6.35-3.71,3.27-1.3,12.29-3.79,15.16-.6.32.35.05.84-.41.79h0Z"/>
          <path class="cls-2" d="M442.93,168.92c-2.38-.83-4.4-3.08-3.36-5.73.08-.21.18-.4.28-.58-1.11.49-1.69,1.51-1.75,3.24,0,.4-.55.5-.69.12-1.21-3.33,1.4-5.07,4.34-5.29-.32-.05-.65-.1-.97-.15-.75-.08-1.5-.06-2.34.27-1.6.62-2.26,1.96-2.7,3.53-.07.25-.41.27-.5.02-.59-1.69.53-3.41,2.11-4.45-.39-.08-.78-.15-1.18-.22-1.66.52-2.5,1.56-3.15,3.23-.08.2-.34.09-.36-.08-.2-1.45.46-2.63,1.5-3.48-.54-.08-1.09-.15-1.64-.21-.1.04-.2.08-.3.13-1.04.54-1.49,1.51-2.06,2.46-.1.17-.41.14-.4-.09.02-.87.53-1.85,1.27-2.62-.64-.04-1.27-.06-1.9-.08-.11.08-.22.15-.33.23-.58.42-1,1.05-1.24,1.72-.14.39-.77.28-.64-.14.16-.56.49-1.26.94-1.82-8.54.04-16.51,1.38-23.96,5.91-.26.14-.56-.19-.34-.41,4.3-4.02,11.88-5.56,17.9-6.7,4.97-.63,20.79-.57,25.74,4.62.19.21.02.48-.24.46-.58-.6-4.12-.79-4.53-.17-.95.26-1.57,1.24-1.64,2.18-.13,1.56,1.17,2.66,2.39,3.34.39.21.17.91-.28.76h0Z"/>
          <path class="cls-2" d="M462.77,161.93c-4.71-.45-9.3-2.51-13.84-3.77-4.41-1.22-8.95-1.96-13.51-2.15-9.24-.39-19.52,1.66-28.05,5.14-.28.12-.48-.34-.22-.48,8.06-4.33,18.26-6.01,27.36-5.97,4.39.02,8.73.75,12.97,1.84,5.16,1.32,10.42,2.96,15.46,4.68.45.15.31.76-.16.71h0Z"/>
          <path class="cls-2" d="M583.89,152.68c.39.02.76.32.64.81-.56,2.22-1.92,4.17-3.76,5.52-.5.36-1.56.93-2.6,1.2,2.38,1.04,4.65,3.11,6.09,4.83,2.18,2.6,3.81,5.66,5.56,8.55,1.98,3.27,4.09,6.53,7.08,8.96,2.23,1.8,4.72,2.44,7.5,2.37,1.1-.03,2.43-.32,2.94-.64.24-.14.57.2.33.4-3.27,2.78-6.63,3.61-10,3.11-16.63,1.75-22.22-17.07-22.66-16.65-.33.47-1.67.69-2.25.52-.85.62-1.2,1.22-2.61,1.25-.02,0,.06-.42.04-.43-.81,2.97-3.02,2.82-3.66,3.06-.96,1.61-2.63,2.24-3.88,1.83-.28-.09-1.11-.28-.95-.6,2.33-4.47.11-8.02-3.84-10.35-4.04-2.38-8.76-1.9-13.02-.37-8.43,3.05-15.35,13.07-15.34,21.91,0,.65-.74.83-1.12.37-1.5-1.82-1.38-5.28-.69-8.8,2.84-14.46,15.56-28.93,31.27-29.07,5.51-.05,11,1.72,16.87,3.43,2.64.77,5.41.32,7.59-1.2.17-.12.34-.1.46,0h0Z"/>
          <path class="cls-4" d="M546.74,163.35h0c4.95-1.31,9.94-.49,13.98,2.67,3.46,2.7,4.49,6.86,2.34,10.54,4.12.74,2.67-7.27,1.57-9.28-1.1-1.99-3.13-3.36-5.08-4.38-3.62-2.33-8.3-2.11-12.52-.8-3.4.89-6.13,2.88-8.53,5.25,2.46-1.83,5.25-3.21,8.26-4h0ZM581.12,174.48c-3.12,1.93-5.79-4.12-2.4,1.03,3.3,5.01,6.84,10.03,14.11,10.8-4.97-2.63-8.43-6.76-11.71-11.84h0ZM580.29,173.32c-1.95-2.4-3.69-5.69-6.17-8.09-1.93-1.87-4.62-3.05-7.16-3.21,3.52,2.03,6.2,4.79,6.16,8.5.03,0,.06-.01.09,0,.6.06,1.22.06,1.8-.12.54-.17.86-.82,1.42-.82-.41-.49,1.13,4.66,3.86,3.75h0ZM574.45,155.02h0c-5.89-1.37-10.34-3.04-14.99-3.05-12.66-.02-26.9,12.59-29,24.82.85-1.38,1.7-2.61,2.33-3.52.45-.66.93-1.28,1.44-1.89-.11-.1-.17-.24-.11-.41,1.58-4.47,6.71-8,10.91-9.74,4.53-1.84,10.07-2.5,15.04-1.78,4.97.71,8.07.48,12.5,2.83,5.31,2.82,7.62,8.98,11.49,13.8,2.74,3.41,5.8,6.73,9.6,8.96,3.01,1.75,6.06,1.98,9.04,1.2-1.4-.04-2.84-.36-3.73-.66-3.05-1.03-5.33-3.54-7.25-6-2.47-3.15-4.35-6.74-6.5-10.12-1.06-1.67-2.21-3.24-3.62-4.64-1.93-1.92-3.96-3.13-6.62-4.1-.41-.34-.24-.73.09-.97.24-.18.53-.14.72-.29,1.23-.26,2.87-.53,4.28-1.59,1.14-.86,2.08-2.06,2.67-3.38-2.31,1.44-5.83.9-8.27.52h0ZM570.28,172.07h0c4.47-1.46-.92-8.25-3.46-8.65.53.53.99,1.08,1.31,1.62.82,1.39,2.11,4.58,2.08,7.07.02-.02.04-.04.07-.04h0ZM566.9,174.68h0c1.14-.31,1.68-1.23,1.94-2.1.65-2.1-.22-4.16-1.33-5.85-1.62-2.47-4.16-4.24-6.72-4.96,4.56,2.23,7.15,7.86,5.98,12.97.03-.03.08-.05.12-.06h0Z"/>
          <path class="cls-2" d="M608.34,159.79c-3.8-.18-6.03,2.1-7.58,5.17-.24.46.31.8.71.68,2.88-.88,5.37-1.41,7.62,1.05,1.33,1.45,1.41,3.71,1.15,5.54-.83,5.83-7.11,7.6-12.05,8.14-1.02.01-1.16.43-.73.62,6.97,3.14,16.93,3.43,21.43-3.9.83-1.36-.94-1.7-2.87-1.64.05-.03.11-.06.16-.1,3.1-2,4.27-4.47,5.84-7.66.88-1.79,1.83-3.54,3.13-5.06.86-1,2.03-1.6,3.31-1.86,1.02-.21,2.39,0,3.27.48-1.37-3.87-14.39-3.98-17.06,2.19-1.13-2.11-4.09-3.54-6.33-3.65h0Z"/>
          <path class="cls-4" d="M615.23,175.51c-1.3.11-2.51.36-2.91.58-.17.09-.07.33.12.27,1.31-.43,3.2-.39,4.45.41-4.16,5.94-12.24,6.14-18.72,4.12l.13-.04c6.84.78,13.13-3.19,13.75-10.35-.15-4.37-3.6-7.81-7.16-8.04.64-.35,1.35-.63,2.22-.77,1.41-.22,2.82.1,4.03.82,1.7,1.01,1.97,2.86,2.88,4.41.17.28.54.3.69-.01.23-.48.36-.94.39-1.39,1.54-2.66,3.35-4.45,6.67-5.24,1.35-.32,2.63-.31,3.88-.14-.65.42-1.26.93-1.83,1.55-3.39,3.64-3.71,9.25-7.15,12.91-.42.46-.91.76-1.45.93h0Z"/>
          <path class="cls-2" d="M452.05,145.94c-2.74,2.63-5.93,2.38-9.11,1.08-.48-.19-.29-.81.08-.98,2.75-1.23,4.97-2.46,5.06-5.8.05-1.97-1.38-3.72-2.78-4.93-4.45-3.86-10.36-1.06-14.43,1.77-.78.66-1.16.44-.96,0,3.19-6.95,10.52-13.71,18.72-11.13,1.52.48.41,1.9-1.08,3.12.06-.01.12-.02.18-.03,3.65-.53,6.15.56,9.43,1.94,1.84.77,3.7,1.47,5.69,1.76,1.31.19,2.58-.13,3.72-.77.91-.51,1.81-1.56,2.15-2.5,1.51,3.82-8.24,12.46-14.3,9.55.54,2.33-.76,5.35-2.37,6.91h0Z"/>
          <path class="cls-4" d="M446.92,129.57c-1.05.77-2.13,1.38-2.58,1.47-.19.04-.26-.2-.09-.28,1.27-.54,2.67-1.81,3.09-3.24-7.04-1.74-13.26,3.41-16.82,9.19l.13-.05c4.65-5.08,12-6.22,17.16-1.23,2.76,3.39,2.41,8.25-.11,10.77.71-.15,1.43-.41,2.18-.88,1.21-.76,2.06-1.92,2.5-3.26.62-1.88-.39-3.45-.72-5.22-.06-.32.21-.58.52-.44.49.21.89.48,1.21.79,2.9.99,5.44,1.15,8.47-.43,1.23-.65,2.18-1.49,3.02-2.44-.77.11-1.56.12-2.4.04-4.95-.52-8.88-4.54-13.87-5.03-.62-.07-1.19.03-1.71.25h0Z"/>
          <path class="cls-2" d="M324.77,164.4c-6.25,3.33-13.02.88-19.33-1.02-6.58-1.99-14.97-4.59-19.92,1.59,0,.01-.01.03-.02.04.19.5-.53.77-.76.3-2.24-4.64,1.76-14.43,6.41-16.5-.16-.31-.28-.65-.34-1.03-.22-1.39.48-2.72,1.44-3.64,1.08-1.04,2.74-1.33,4.16-.91.08.02.16.05.24.08-.01-.07,0-.14.03-.23,1.39-2.8,1.7-6.09-.97-8.3-.4-.33-.26-1.12.32-1.14,5.43-.23,7.25,3.92,9.53,7.84.21-.24.34-.38.46-.48-3.72-3.93-3.15-9.61-.45-14.11,2.04-3.4,7.88-10.08,12.72-9.01.26-.07.5.03.68.2.05.02.11.03.16.06.27.12.35.54.08.71-.03.02-.07.04-.1.06-.05.08-.11.15-.21.21-2.48,1.51-4.46,2.95-5.71,5.67-1.37,2.99-.46,6.54.74,9.41,2.03,4.85,6.7,8.17,10.23,11.87,4.65,4.88,8.22,14.26.59,18.33h0ZM311.08,149.22h0c-.07.21-.14.41-.24.61.93,2.09,2.08,3.98,4.23,4.99,3.64,1.72,6.55-1.21,4.99-4.34-1.4-2.91-5.51-4.17-8.95-1.28-.01.01-.02,0-.04.01h0Z"/>
          <path class="cls-4" d="M325.53,149.99h0c-2.89-4.43-7.57-7.44-10.87-11.56-3.97-4.97-4.97-12.06-1.55-16.74-1.9,1.25-3.53,2.91-4.92,4.7-3.31,4.27-4.8,10.09-.58,14.31.4.4.27,1.07-.33,1.17-.33.14-.66.29-.99.43-.06.04-.11.07-.17.09.06.11.13.21.2.32.34-.18.81-.14,1.09.2.94,1.11,1.59,2.46,2.18,3.87,1.85-1.03,3.92-1.47,5.88-1.18-3.31-2.53-6.64-5.34-6.89-9.82-.01-.27.35-.38.46-.12.87,2.03,1.96,3.65,3.22,5.08,2.3,1.13,4.87,2.57,7.15,4.29-2.09-1.81-4.36-3.46-6.39-5.34-.17-.16,0-.5.22-.37,3.43,1.93,9.27,6.32,12.59,11.14-.09-.16-.19-.31-.29-.46h0ZM320.17,163.31h0c-4.38-.04-8.84-2.36-12.7-4.21-3.44-1.65-7.31-4.5-11.13-5.08-.2-.03-.15-.31.04-.3,2.71.12,5.29,1.41,7.73,2.49,2.21.97,4.36,2.03,6.56,2.99-1.74-1.62-3.35-3.52-5.02-4.95-.15-.13.03-.35.19-.24.15.11.3.22.45.33-1.45-2.01-2.51-4.29-3.04-6.43-.05-.19.25-.25.32-.08,1.91,4.77,5.75,9.42,10.89,10.65-2.33-.85-4.23-2.74-5.68-4.97-.49-.58-.94-1.17-1.35-1.71-.03-.04.03-.08.06-.04.19.21.4.42.61.64-.76-1.35-1.37-2.77-1.83-4.14-.03-.11.12-.2.18-.1,2.08,3.62,4.37,7.48,8.46,8.85.74.2,1.51.31,2.29.27.3-.01.6-.07.89-.16-2.06.08-4.43-.92-5.73-1.94-2.92-2.29-3.46-6.39-5.17-9.6-.33.14-.77.07-1.01-.24-2.62-3.42-3.83-9.5-8.41-10.32,2.12,2.45,1.95,6.55.7,9.36,1.45,1.18,1.27,4.64.71,3.73-.22-2.21-2.27-4.06-4.56-3.57-2,.42-3.34,2.99-1.49,4.99,1.31,1.42,2.73.66,2.53,1.56.19.59-1.79.32-3.87.74-4.94,1.01-7.87,8.06-6.45,12.67.01.03.03.06.04.09,5.34-7.96,15.05-4.07,24.14-1.55-.04-.02-.08-.04-.11-.06-6.26-3.27-11.83-7.12-19.19-5.79-.08.01-.09-.09-.03-.12,8.62-4.62,17.35,5.33,25.54,6.51,1.69.24,3.46.14,5.12-.3-.23.01-.45.02-.69.02h0Z"/>
          <path class="cls-2" d="M331.47,158.22c-1.06,2.58-2.05,4.1-3.49,5.81-4.21,4.99-9.64,9.32-15.36,11.92-12.92,5.94-26.8,7.88-40.88,2.58-7.52-2.83-13.75-8.13-14.8-16.53-.58-4.65,1.09-9.71,4.64-12.8,3.46-3.01,9.21-2.59,12.51.39,3.26,2.95,3.38,8.38,1.32,12.01.41-.31.94-.54,1.61-.66,2.85-.52,4.61,2.19,3.2,4.27,3.91,5.81,18.56,5.07,24.58,3.94,5.86-.8,10.99-3.39,15.25-6.88.96-.51,1.48.84.79,1.46-6.59,5.96-14.67,8.75-23.42,9.37-6.16.44-15.02.03-20.31-3.77-1.78-1.28-3.83-3.52-2.57-6.39-1.7,1.99-4.34,2.99-7.52,1.85-.86-.31-1.57-.75-2.26-1.27-.01-.02-.03-.05-.04-.07-.03-.08-.07-.15-.1-.23-.01-.03-.03-.06-.05-.09-.2-.85.22-1.36,1-1.6,1.79.6,3.29-1.36,3.65-3.33.41-2.25-2.15-3.43-4.01-2.91-.19.05-.38.13-.55.21-.06.03-.12.05-.17.09,0,0-.01,0-.02,0-4.07,2.1-3.21,7.51-1.6,10.61,2.79,4.78,8.5,7.85,14.88,9.45,8.73,2.2,18.77,1.73,24.75-.14,10.79-3.38,21.72-10.01,27.65-18.43.77-.78,2.33-1.72,1.32,1.12h0Z"/>
          <path class="cls-4" d="M280.04,169.76c4.7,2.21,10.72,2.78,15.58,2.58,5.33-.23,11.38-1.47,9.68-2.02-2.53.47-9.88,1.15-15.14.36-4.94-.74-9.52-2.47-10.49-4.84-.03.03-.05.06-.09.09-.38.32-.93-.27-.59-.62.17-.19.32-.37.42-.55,0-.02,0-.04,0-.07,0-.12.07-.2.16-.23.45-1.11-.37-2-1.81-2.21-1.06-.12-1.82.45-2.02.94-1.27,3.18,2.11,5.56,4.31,6.59h0Z"/>
          <path class="cls-4" d="M329.44,159.89c-5.98,7.3-15.64,13.08-24.59,15.97-9.11,2.94-18.94,3.16-29.03.54-4.23-1.1-8.59-3.55-11.54-6.34-4.2-3.98-6.21-12.12-.38-15.93,2.24-1.46,5.19-.33,6.64,1.94,1.16,2.72-.15,5.46-2.37,6.69,2.54.71,4.92-.14,6.23-3.56,1.38-3.59-.08-7.93-3.56-9.57-4.74-2.24-9.25.66-11.25,5-2.26,4.91-1.13,10.25,1.77,14.57,6.84,10.15,23.15,12.08,34.19,10.69,6.35-.8,12.73-2.84,18.37-5.8,4.16-2.14,14.36-9.71,15.52-14.19h0Z"/>
          <path class="cls-2" d="M127.78,185.32c-.76-1.02-.65-2.96-.44-4.23-1.55,1.22-4.33,1.8-6.01,1.43-2.58-.56-8.22-4.02-9.58-7.23-.02-.11.1-.18.19-.14,5.21,2.29,6.06,1.47,10.97-1,.29-.14,1.84-.43,2.9-.76-1.65-1.42-4.06-2.01-6.15-2.21-1.33-.13,2.12-1.45,2.39-1.53,4.85-1.38,7.99-1.76,13.65,0,2.84.88,5.85,2.25,8.71,3.86-.89-2.1-.94-6.55,1.83-7.36.77-.23,1.44-.12,1.96.24.69-3.08,5.09-8.82,8.88-7.24.46.06.91.65.18.73-4.17,3.83-5.83,8.97-4.23,14.44,1.61,5.51,6.36,8.95,11.4,11.14,9.57,4.16,23.73,4.32,32.56-2.36,2.91-2.2,3.46-1.09.42,1.46-8.24,6.93-18.61,9.04-29.86,6.47-6.07-1.39-11.21-4.4-16.73-7.12-4.46-2.2-11.27-5.36-15.62-3.44,3.38,4.06-3.89,9.61-7.43,4.85h0Z"/>
          <path class="cls-4" d="M134.74,182.99c.4-2.94-3.67-3.52-2.35-3.58.6-.03,1.13-.09,1.57.06,3.5-2.02,8.06-.64,11.66.66,5.15,1.86,9.77,4.89,14.87,6.86,6.74,2.61,13.92,4.03,21.08,3-7.45.44-15.2-1.33-21.22-4.67-9.33-5.17-13.22-18-4.58-25.3-3.3.4-5.99,4.5-6.19,7.55-.06.87-1.24.79-1.5.11-1.74-.68-2.95,1.08-2.95,2.83,0,3.59,3.7,6.76,6.69,8.02.6.49,0,1.44-.71,1.14-8.95-3.89-17.57-13.13-28.35-9.03,1.15.08,5.71,1.4,5.71,3.67-.08.48-.97.46-1.32.43-4.19-.36-6.94,3.38-11.2,3.29,1.11.83,2.23,1.66,3.5,2.29,3.52,1.65,5.59.58,8.66-1.21.29-.17,1-.26.72.38-.67,1.52-1.24,3.25-.39,4.79,1.55,3.03,6.13,2.03,6.28-1.29h0Z"/>
          <path class="cls-2" d="M362.99,106.08c.04-.33.31-.63.72-.5,1.87.59,3.47,1.86,4.52,3.5.28.44.72,1.38.89,2.29,1.01-1.98,2.89-3.81,4.44-4.96,2.33-1.73,5.03-2.96,7.6-4.31,2.9-1.52,5.79-3.16,8.02-5.59,1.66-1.81,2.33-3.91,2.41-6.29.03-.95-.15-2.1-.4-2.55-.11-.21.2-.47.36-.26,2.21,2.94,2.74,5.86,2.14,8.7.63,14.31-15.74,18.11-15.4,18.51.39.31.5,1.46.33,1.95.48.76.98,1.09.94,2.29,0,.02-.35-.07-.36-.06,2.5.85,2.25,2.73,2.42,3.29,1.33.9,1.78,2.37,1.37,3.42-.1.24-.3.94-.56.78-3.7-2.22-6.85-.51-9.05,2.75-2.24,3.33-2.08,7.39-.98,11.11,2.17,7.37,10.38,13.8,17.94,14.24.55.03.67.67.26.97-1.63,1.19-4.58.9-7.55.13-12.22-3.17-23.93-14.79-23.23-28.23.24-4.72,2.04-9.31,3.8-14.24.79-2.22.56-4.6-.63-6.55-.09-.15-.06-.29.02-.39h0Z"/>
          <path class="cls-4" d="M370.19,138.39h0c-.86-4.3.09-8.52,3-11.81,2.49-2.82,6.1-3.48,9.13-1.45.85-3.48-6.08-2.66-7.85-1.81-1.75.84-3.03,2.5-4,4.12-2.18,2.98-2.23,6.98-1.33,10.66.59,2.95,2.14,5.39,4.05,7.56-1.44-2.2-2.47-4.66-2.99-7.26h0ZM381.48,109.58c1.49,2.77-3.82,4.74.76,2.1,4.45-2.56,8.93-5.33,9.96-11.5-2.51,4.11-6.22,6.86-10.72,9.4h0ZM380.45,110.23c-2.15,1.54-5.05,2.86-7.23,4.86-1.7,1.55-2.85,3.8-3.12,5.96,1.92-2.9,4.41-5.05,7.58-4.83,0-.03,0-.05,0-.08.08-.51.12-1.04,0-1.55-.12-.47-.66-.78-.63-1.26-.44.32,4.04-.72,3.4-3.11h0ZM364.5,114.28h0c-1.47,4.97-3.13,8.68-3.38,12.66-.67,10.82,9.37,23.64,19.72,26.07-1.14-.79-2.14-1.59-2.89-2.17-.54-.42-1.05-.86-1.54-1.32-.09.09-.21.13-.35.08-3.74-1.58-6.49-6.15-7.76-9.83-1.34-3.97-1.61-8.73-.74-12.95.86-4.21.83-6.87,3.07-10.53,2.68-4.4,8.07-6.05,12.39-9.11,3.06-2.17,6.06-4.6,8.15-7.74,1.66-2.48,2-5.08,1.49-7.67-.11,1.2-.45,2.41-.76,3.16-1.03,2.56-3.3,4.37-5.51,5.89-2.82,1.94-5.99,3.37-8.98,5.03-1.48.82-2.88,1.73-4.15,2.85-1.74,1.56-2.88,3.22-3.84,5.45-.3.34-.64.17-.83-.13-.14-.22-.1-.46-.21-.63-.16-1.06-.3-2.48-1.14-3.74-.68-1.02-1.65-1.89-2.75-2.46,1.11,2.05.47,5.03.01,7.1h0ZM378.86,118.72h0c-1.02-3.9-7.1.36-7.57,2.52.48-.43.97-.79,1.46-1.04,1.23-.64,4.02-1.57,6.15-1.42-.01-.02-.03-.03-.03-.06h0ZM380.92,121.74h0c-.2-.99-.96-1.5-1.69-1.77-1.76-.67-3.57-.02-5.07.84-2.19,1.26-3.84,3.33-4.59,5.49,2.14-3.78,7.09-5.71,11.4-4.44-.02-.03-.04-.07-.04-.11h0Z"/>
          <path class="cls-2" d="M320.83,192.81c2.77-1.69,3.73-5.56.78-7.58-.05-.03-.1-.04-.15-.04,0-.03,0-.06,0-.08-.17.06-.33.08-.49.08-.21.08-.6.45-.82.42-1.61.41-2.04-1.05-1.7-2.13.75-2.42,4.25-4.74,4.78-5.33.5,2.02,2.25,3.72,4.39,4.19.02.02.04.04.05.06.08.02.15.04.23.05.49,0,1-.04,1.41-.23.03-.01.05-.03.08-.04-.01-.08-.04-.16-.09-.24-2.32-3.86,2.8-9.47,5.45-11.8,1.68-1.48,3.69-2.7,5.83-3.33.71-.21,1.43-.27,2.15-.23-2.03.74-3.75,2.17-4.63,4.26-1.06,2.57-.1,6.09-1.63,8.35-.57.85-2.06.7-1.58,1.91,1.62,2.72,4.7,2.7,7.53,1.48,1.27-.55,3.94-2.53,5.38-3.47.35.52.75.97,1.09,1.31,1.43,1.44,3.68,2.54,5.75,2.56.61-.13,1.21-.3,1.8-.48.03-.02.06-.04.1-.06.07-.34-.05-.69-.47-.9-5.95-2.88-.21-10.77,3.29-12.92,4.9-3.01,11.49-2.91,16.79-1.23,4.89,1.54,14.29,10.48,9.05,15.82-.29.29-.64.53-.97.78-.01-.03-.03-.07-.04-.1-.83-1.77-2.63-2.88-4.53-3.02-2.91-.56-6.17,1.27-7.25,4.03-1.62,4.17-.37,9.74,3.98,11.63,4.58,1.99,9.82.32,13.35-2.99,4.15-4.09,5.24-10.32,4.61-15.91-.76-6.73-4.29-13.08-8.19-17.35-4.11-4.57-9.62-7.5-15.43-9.23-4.23-1.26-10.31-2.55-12.83-6.58-1.36-2.17.18-4.24,1.51-5.94.03-.04.06-.1.08-.14-.21,0-.42-.01-.63-.08-.03,0-.04,0-.07,0-.06,0-.12,0-.18,0-.42.08-.84.17-1.26.25-.02.02-.04.03-.05.05-3.41,1.01-7.39,4.55-7.04,8.3.01.14.04.26.07.4-5.24,2-9.86,3.6-15.61,2.53-2.62-.48-5.08-1.65-7.12-3.35-.57-.47-1.04-.98-1.44-1.5-.04.07-.08.13-.13.19-.12.1-.21.22-.26.37-.1.25-.23.48-.38.69-.04.07-.06.11-.05.08-.01.02-.03.05-.04.07.02.02.04.04.05.06-1.62,3.34,1.09,7.06,4,9-2.73-1.02-5.92.46-8.35,1.82-1.78,1-3.44,2.24-5.38,2.9-2.71.93-4.45-.61-6.04-2.56-.03-.08-.08-.15-.15-.19-.06-.07-.12-.15-.17-.22-.2-.26-.59-.06-.61.23-.05.57,0,1.08.1,1.54-.02,2.5,1.44,4.72,3.48,6.22,1.28.94,2.82,1.15,4.41,1.12-3.24,2.19-5.84,6.29-7.1,9.31-2.07,4.97-2.43,10.41.79,14.94,2.44,3.42,6.87,4.46,10.49,2.26h0Z"/>
          <path class="cls-4" d="M335.79,180.73s.05-.2.05-.2c1.57-.18,2.49-1.45,2.65-3.12.15-1.53.04-3.04.42-4.54.73-2.87,3.22-4.57,6.01-4.87.86-.09.92-1.09.45-1.61-.7-1.25-3.38-1.09-4.52-.96-2.88.31-5.5,2.11-7.64,3.94-2.05,1.76-3.87,3.99-5.02,6.45-.61,1.32-1.41,3.42-1.16,5.09-1.99-1.29-3.2-2.93-2.29-5.76.2-.63-.74-1.08-1.06-.48-.34.62-.52,1.26-.57,1.89-1.19,1.58-2.76,2.78-4.09,4.24-1.31,1.45-2.54,3.34-1.36,5.13-1.26-.23-2.49-1.07-3.21-2.23-2.3-3.67-.33-8.31,3.24-12.1,2.41-2.55,4.25-3.34,6-4.08.19-.11.15-.46-.1-.44-1.86.12-4.06,1.65-5.77,3.06-5.7,4.7-8.29,14.01-.93,17.03,1.66.59,3.68.16,4.37-1.36,1.67,2.95.5,5.68-2.81,6.66-3.74.57-6.55-1.98-8.12-5.25-1.65-3.78-.82-8.15.74-11.94,2.18-4.4,6.02-7.91,9.62-8.87.34-.17.71-.33,1.01-.57.13-.11.22-.18.26-.26.08-1.18-4.8-.23-6.01-.58-2.58,0-4.46-1.59-5.48-3.68,1.84,1.17,4.69,1.11,6.71.24,2.16-.94,4.01-2.51,5.99-3.76,1.92-1.21,3.67-1.61,5.69-1.52.4-.03.8-.03,1.19,0,.22-.01.45-.04.67-.04,0-.02,0-.04-.02-.05.04.02.07.03.11.05.13,0,.26-.01.39,0,.09,0,.15.02.22.04.05-.1.04-.23-.08-.29-1.92-.91-3.46-2.21-4.53-4.07-.43-.75-.61-1.49-.69-2.24.91,1.29,2.52,2.3,3.74,2.84,2.82,1.25,5.75,1.49,8.8,1.27,6.63-.48,13.39-3.15,19.84-.73.37.19.72.4,1.03.63.5.37,1.1-.4.69-.84-2.17-2.35-5.69-2.17-8.05-4.16-2.26-1.91.02-5.44,1.59-6.92.78-.74,1.75-1.28,2.64-1.88-.87,1.61-.97,3.54-.02,5.38,1.56,3.05,5.51,4.58,8.5,5.72,3.62,1.39,7.45,2.09,10.97,3.74,6.51,3.03,11.57,8.34,14.46,14.91,2.28,5.18,3.36,11,1.86,16.55-1.59,5.86-6.52,9.88-12.59,9.79-5.84-.08-8.6-7.47-5.43-11.83-2.12,4.19-.09,10.69,5.43,10.25.32-.02.39-.41.09-.55-2.75-1.24-5.04-2.4-5.06-5.85-.01-1.78.87-3.57,2.2-4.71,2.03-1.74,5.15-.74,6.28,1.19.83,1.94.11,3.56-.88,4.35-.12.28.28.49.48.32h.02c.97-.18,1.53-.71,1.83-1.41,3.72-2.48,4.26-7.71,2.92-11.37-1.71-4.44-6.68-9.38-12.26-11.05-6.44-1.93-14.1-.88-19.31,3.54-3.31,2.81-5.76,9.42-2.66,12.95-1.05-.35-2.02-.88-2.96-1.56-.79-.58-1.43-1.35-1.9-2.21-.4-.74-.23-1.51-.48-2.26-.09-.27-.41-.34-.59-.1-.56.77-.43,1.72,0,2.61-2.42,1.66-8.28,7-11.54,2.46h0ZM326.71,147.6h0c1.99,1.56,4.31,2.72,6.12,3.27,2.1.64,4.58.94,7.12.85-.26.05-.51.1-.76.14-2.39.39-4.82.46-7.19-.08-1.93-.44-3.27-1.53-4.62-2.76-.3-.43-.52-.9-.67-1.42h0Z"/>
          <path class="cls-7" d="M335.1,191.15c.3-.28-.13-.75-.43-.47-.3.28.13.75.43.47h0Z"/>
          <path class="cls-2" d="M364.33,162.77c4.62-.55,8.75-.31,13.33.81,2.43.71,4.79,1.96,6.89,3.22.42.25,1.64,1.19,2.36,1.39.04-.03.08-.06.09-.11.05-.34-.92-1.24-1.57-1.79-1.96-1.65-5.58-3.4-6.35-3.71-3.27-1.3-12.29-3.79-15.17-.6-.32.35-.05.84.41.79h0Z"/>
          <path class="cls-2" d="M346.16,168.92c2.38-.83,4.41-3.08,3.36-5.73-.08-.21-.18-.4-.28-.58,1.11.49,1.69,1.51,1.74,3.24.01.4.55.5.69.12,1.21-3.33-1.4-5.07-4.34-5.29.32-.05.65-.1.97-.15.76-.08,1.5-.06,2.34.27,1.6.62,2.26,1.96,2.7,3.53.07.25.41.27.5.02.59-1.69-.53-3.41-2.11-4.45.39-.08.78-.15,1.18-.22,1.66.52,2.49,1.56,3.15,3.23.08.2.34.09.36-.08.19-1.45-.46-2.63-1.5-3.48.54-.08,1.09-.15,1.64-.21.1.04.2.08.3.13,1.04.54,1.49,1.51,2.06,2.46.1.17.41.14.4-.09-.02-.87-.53-1.85-1.27-2.62.64-.04,1.27-.06,1.9-.08.11.08.22.15.33.23.58.42,1,1.05,1.24,1.72.14.39.77.28.64-.14-.16-.56-.49-1.26-.94-1.82,8.54.04,16.51,1.38,23.95,5.91.26.14.56-.19.34-.41-4.3-4.02-11.89-5.56-17.9-6.7-4.97-.63-20.79-.57-25.74,4.62-.2.21-.02.48.24.46.57-.6,4.12-.79,4.53-.17.95.26,1.56,1.24,1.64,2.18.12,1.56-1.17,2.66-2.4,3.34-.39.21-.17.91.27.76h0Z"/>
          <path class="cls-2" d="M326.32,161.93c4.71-.45,9.3-2.51,13.84-3.77,4.4-1.22,8.95-1.96,13.51-2.15,9.24-.39,19.52,1.66,28.05,5.14.28.12.48-.34.22-.48-8.06-4.33-18.27-6.01-27.36-5.97-4.39.02-8.73.75-12.97,1.84-5.16,1.32-10.42,2.96-15.45,4.68-.45.15-.31.76.15.71h0Z"/>
          <path class="cls-2" d="M205.21,152.68c-.39.02-.76.32-.64.81.55,2.22,1.92,4.17,3.76,5.52.49.36,1.56.93,2.6,1.2-2.38,1.04-4.65,3.11-6.1,4.83-2.18,2.6-3.81,5.66-5.56,8.55-1.98,3.27-4.09,6.53-7.08,8.96-2.23,1.8-4.72,2.44-7.5,2.37-1.1-.03-2.43-.32-2.94-.64-.24-.14-.57.2-.33.4,3.27,2.78,6.63,3.61,9.99,3.11,16.63,1.75,22.22-17.07,22.66-16.65.33.47,1.67.69,2.25.52.85.62,1.21,1.22,2.61,1.25.02,0-.06-.42-.04-.43.82,2.97,3.02,2.82,3.66,3.06.96,1.61,2.64,2.24,3.88,1.83.28-.09,1.11-.28.95-.6-2.32-4.47-.11-8.02,3.85-10.35,4.03-2.38,8.76-1.9,13.02-.37,8.43,3.05,15.35,13.07,15.34,21.91,0,.65.74.83,1.12.37,1.51-1.82,1.38-5.28.69-8.8-2.84-14.46-15.56-28.93-31.27-29.07-5.51-.05-10.99,1.72-16.87,3.43-2.64.77-5.41.32-7.6-1.2-.17-.12-.34-.1-.46,0h0Z"/>
          <path class="cls-4" d="M242.35,163.35h0c-4.96-1.31-9.94-.49-13.98,2.67-3.46,2.7-4.49,6.86-2.34,10.54-4.11.74-2.67-7.27-1.56-9.28,1.1-1.99,3.13-3.36,5.08-4.38,3.62-2.33,8.3-2.11,12.53-.8,3.39.89,6.12,2.88,8.53,5.25-2.46-1.83-5.25-3.21-8.26-4h0ZM207.98,174.48c3.12,1.93,5.8-4.12,2.4,1.03-3.3,5.01-6.84,10.03-14.11,10.8,4.97-2.63,8.43-6.76,11.71-11.84h0ZM208.81,173.32c1.95-2.4,3.69-5.69,6.17-8.09,1.93-1.87,4.63-3.05,7.16-3.21-3.52,2.03-6.2,4.79-6.16,8.5-.03,0-.06-.01-.09,0-.6.06-1.22.06-1.8-.12-.54-.17-.86-.82-1.42-.82.4-.49-1.13,4.66-3.86,3.75h0ZM214.65,155.02h0c5.89-1.37,10.35-3.04,14.99-3.05,12.66-.02,26.9,12.59,28.99,24.82-.84-1.38-1.7-2.61-2.32-3.52-.45-.66-.93-1.28-1.44-1.89.11-.1.17-.24.12-.41-1.58-4.47-6.71-8-10.91-9.74-4.53-1.84-10.06-2.5-15.04-1.78-4.97.71-8.07.48-12.49,2.83-5.31,2.82-7.62,8.98-11.5,13.8-2.74,3.41-5.79,6.73-9.6,8.96-3.01,1.75-6.06,1.98-9.05,1.2,1.41-.04,2.83-.36,3.73-.66,3.05-1.03,5.33-3.54,7.26-6,2.46-3.15,4.35-6.74,6.49-10.12,1.06-1.67,2.21-3.24,3.62-4.64,1.93-1.92,3.95-3.13,6.62-4.1.41-.34.24-.73-.09-.97-.25-.18-.53-.14-.72-.29-1.23-.26-2.87-.53-4.28-1.59-1.14-.86-2.08-2.06-2.67-3.38,2.31,1.44,5.83.9,8.27.52h0ZM218.82,172.07h0c-4.48-1.46.92-8.25,3.46-8.65-.53.53-.99,1.08-1.31,1.62-.83,1.39-2.11,4.58-2.09,7.07-.02-.02-.04-.04-.06-.04h0ZM222.19,174.68h0c-1.14-.31-1.67-1.23-1.94-2.1-.65-2.1.23-4.16,1.33-5.85,1.62-2.47,4.16-4.24,6.72-4.96-4.56,2.23-7.15,7.86-5.98,12.97-.04-.03-.08-.05-.13-.06h0Z"/>
          <path class="cls-2" d="M180.76,159.79c3.8-.18,6.03,2.1,7.58,5.17.23.46-.31.8-.71.68-2.88-.88-5.36-1.41-7.62,1.05-1.33,1.45-1.41,3.71-1.15,5.54.83,5.83,7.11,7.6,12.05,8.14,1.03.01,1.16.43.73.62-6.97,3.14-16.93,3.43-21.43-3.9-.83-1.36.94-1.7,2.87-1.64-.05-.03-.1-.06-.15-.1-3.11-2-4.27-4.47-5.84-7.66-.88-1.79-1.82-3.54-3.13-5.06-.86-1-2.03-1.6-3.31-1.86-1.02-.21-2.39,0-3.27.48,1.37-3.87,14.39-3.98,17.06,2.19,1.13-2.11,4.09-3.54,6.32-3.65h0Z"/>
          <path class="cls-4" d="M173.87,175.51c1.29.11,2.51.36,2.91.58.17.09.06.33-.12.27-1.31-.43-3.21-.39-4.46.41,4.16,5.94,12.24,6.14,18.72,4.12l-.13-.04c-6.85.78-13.13-3.19-13.75-10.35.15-4.37,3.6-7.81,7.16-8.04-.64-.35-1.35-.63-2.23-.77-1.41-.22-2.82.1-4.03.82-1.7,1.01-1.96,2.86-2.88,4.41-.16.28-.54.3-.69-.01-.23-.48-.35-.94-.39-1.39-1.54-2.66-3.35-4.45-6.66-5.24-1.36-.32-2.63-.31-3.88-.14.65.42,1.26.93,1.83,1.55,3.39,3.64,3.71,9.25,7.15,12.91.42.46.91.76,1.45.93h0Z"/>
          <path class="cls-2" d="M337.05,145.94c2.74,2.63,5.93,2.38,9.11,1.08.48-.19.3-.81-.08-.98-2.75-1.23-4.97-2.46-5.06-5.8-.05-1.97,1.38-3.72,2.77-4.93,4.46-3.86,10.36-1.06,14.44,1.77.78.66,1.16.44.96,0-3.19-6.95-10.52-13.71-18.73-11.13-1.52.48-.41,1.9,1.09,3.12-.06-.01-.12-.02-.18-.03-3.66-.53-6.16.56-9.43,1.94-1.84.77-3.7,1.47-5.69,1.76-1.31.19-2.58-.13-3.72-.77-.9-.51-1.8-1.56-2.15-2.5-1.52,3.82,8.24,12.46,14.29,9.55-.53,2.33.76,5.35,2.37,6.91h0Z"/>
          <path class="cls-4" d="M342.17,129.57c1.05.77,2.13,1.38,2.57,1.47.19.04.26-.2.09-.28-1.27-.54-2.67-1.81-3.09-3.24,7.03-1.74,13.26,3.41,16.82,9.19l-.13-.05c-4.65-5.08-12-6.22-17.16-1.23-2.76,3.39-2.41,8.25.11,10.77-.71-.15-1.43-.41-2.18-.88-1.21-.76-2.06-1.92-2.51-3.26-.62-1.88.4-3.45.73-5.22.06-.32-.21-.58-.53-.44-.49.21-.89.48-1.21.79-2.91.99-5.45,1.15-8.46-.43-1.24-.65-2.18-1.49-3.02-2.44.76.11,1.56.12,2.4.04,4.95-.52,8.88-4.54,13.87-5.03.62-.07,1.19.03,1.71.25h0Z"/>
        </g>
        <g>
          <polygon class="cls-6" points="384 378.37 384.89 383.35 13.83 382.42 384 378.37 384 378.37"/>
          <polygon class="cls-6" points="396.59 378.37 395.7 383.35 765.82 382.42 396.59 378.37 396.59 378.37"/>
          <path class="cls-2" d="M102.64,361.83c-.45,1.21.2,3.08.75,4.26-1.86-.76-4.73-.55-6.28.28-2.36,1.27-6.91,6.21-7.35,9.73.01.11.15.15.23.08,4.45-3.68,5.51-3.12,11-2.07.32.06,1.92-.09,3.04-.06-1.21,1.85-3.41,3.1-5.4,3.88-1.27.49,2.48.83,2.76.83,5.13,0,8.3-.5,13.34-3.8,2.53-1.65,5.09-3.82,7.43-6.2-.28,2.3.9,6.66,3.83,6.68.82,0,1.44-.29,1.85-.78,1.53,2.82,7.42,7.21,10.69,4.6.43-.19.71-.88-.03-.77-5.14-2.58-8.19-7.14-8.15-12.93.04-5.83,3.72-10.51,8.04-14.06,8.2-6.73,21.98-10.83,32.47-6.76,3.46,1.34,3.68.11.01-1.54-9.98-4.48-20.71-3.65-30.98,1.99-5.54,3.04-9.73,7.42-14.37,11.62-3.75,3.4-9.53,8.37-14.3,7.71,2.17-4.91-6.48-8.31-8.61-2.67h0Z"/>
          <path class="cls-4" d="M110.1,362.18c1.21,2.76-2.6,4.46-1.29,4.15.59-.14,1.13-.23,1.52-.5,3.99,1,8.05-1.62,11.21-3.89,4.52-3.25,8.19-7.5,12.62-10.84,5.86-4.43,12.48-7.81,19.77-8.79-7.4,1.65-14.49,5.53-19.44,10.46-7.68,7.65-7.91,21.27,2.56,26-3.34.52-7.1-2.73-8.15-5.66-.3-.83-1.44-.43-1.49.31-1.51,1.15-3.18-.23-3.67-1.94-1.01-3.5,1.73-7.63,4.31-9.7.45-.64-.4-1.41-1.01-.91-7.66,6.28-13.52,17.71-25.19,16.71,1.11-.4,5.2-2.95,4.56-5.18-.22-.45-1.07-.18-1.41-.05-3.99,1.52-7.72-1.38-11.86-.11.86-1.12,1.72-2.24,2.79-3.21,2.98-2.59,5.3-2.12,8.8-1.23.33.09,1.05-.02.6-.57-1.08-1.3-2.12-2.83-1.71-4.57.67-3.39,5.42-3.69,6.5-.48h0Z"/>
          <path class="cls-2" d="M70.17,352.32c3.79-2.22,7.3-1.08,10.53,1.23.49.35.11.99-.36,1.08-3.42.64-6.25,1.42-7.24,5.15-.59,2.2.55,4.55,1.79,6.29,3.97,5.53,11.35,3.98,16.7,1.89,1.06-.54,1.42-.18,1.08.25-5.46,6.95-15.5,12.58-24.03,7.47-1.58-.95.05-2.25,2.06-3.21-.07,0-.14-.01-.21-.02-4.25-.38-6.77-2.29-10.08-4.72-1.86-1.36-3.76-2.65-5.92-3.5-1.42-.57-2.94-.55-4.39-.14-1.15.33-2.44,1.27-3.09,2.24-.68-4.69,12.6-11.78,18.63-6.89.03-2.76,2.29-5.81,4.52-7.12h0Z"/>
          <path class="cls-4" d="M71.53,372.1c1.38-.58,2.76-.97,3.29-.96.22,0,.24.3.02.34-1.58.26-3.49,1.31-4.34,2.81,7.44,3.85,15.81-.27,21.37-5.81l-.16.02c-6.59,4.46-15.15,3.76-19.62-3.23-2.19-4.55-.49-9.92,3.02-12.07-.84-.02-1.72.08-2.69.41-1.56.52-2.83,1.61-3.69,2.99-1.2,1.94-.48,3.98-.58,6.05-.02.37-.39.6-.71.36-.49-.37-.87-.78-1.15-1.22-3-1.9-5.81-2.76-9.63-1.79-1.56.39-2.85,1.09-4.05,1.93.89.08,1.79.28,2.7.6,5.42,1.91,8.75,7.48,14.23,9.38.68.25,1.34.29,1.99.18h0Z"/>
          <path class="cls-2" d="M166.92,368.27c-1.79.63-1.85,2.31-2.98,3.49-.4.42-1.07.89-1.59.16-4.27-5.98,3.31-14.98,9.9-12.04-2.97-3.76-9.21-6.12-13.88-4.65-1.91.6-2.47,2.13-3.28,3.62,1.29,4.49,5.06,11.94-2.13,13.28-3.34.12-6.83-3.09-8.42-6.26-2.45-4.87-.87-10.36,2.27-14.47,4.3-5.62,12.82-9.67,20.26-8.82-.48-1.53.35-3.46,1.25-4.74,3.71-5.27,11.78-1.01,12.36,4.59.11.13.22.25.32.38,4.85-15.12,29.84-5.14,24.6,9.38-1.43,3.95-6.44,8.07-10.43,6.68-.29,4.14,4.55,7.64,10.04,9.69,5.31,1.99,11.32,2.21,14.19,1.59,9.7-.65,19.37-5,27.91-9.49,2.02-1.06,3.89-2.26,5.66-3.57,1.14,1.05-4.23,6.48-10.38,11.19-10.12,7.74-21.41,14.94-34.81,16.91-6.22.91-11.8-.77-17.36-3.4-6.39-3.02-12.92-6.97-20.16-4.74-.14.3-.5.83-.88.5-3.12-2.65,3.4-7.04,5.9-7.25-2.29-1.6-5.56-3.02-8.35-2.04h0Z"/>
          <path class="cls-4" d="M229.56,373.02c4.98-1.84,9.18-5.1,13.49-8.15-11.76,5.73-29.64,10.81-42.18,4.15-3.06-1.52-8.99-6.46-7.37-12.26.25-.5,1-.22,1.33-.08,5.76,2.48,9.81-3.83,9.82-8.95.02-9.05-13.09-14.1-19.77-8.6,5.53-2.84,13.74-.72,16,5.39.84,2.28-.2,5.72-1.06,5.01-1.75-6.63-8.8-5.34-12.39-2.2-2.52,2.2-3.8,7.62-2.56,12.25,2.35,8.81,11.1,14.34,19.46,16.19,8.37,1.85,17.32.18,25.24-2.75h0ZM150.72,349.47c-5.84,4.93-7.77,12.99-2.56,18.87,1.11,1.26,3.46,3.26,5.29,2.37,2.16-1.04,2.88-3.81,1.9-5.93-1.81-3.92-5.19-6.97-2.75-11.77.12,0,.24.08.23.23-.13,3.09.37,5.92,1.63,8.73-.56-1.72-1.17-3.42-1.4-4.92-1.05-6.99,4.92-12.49,11.35-13.37-4.92.3-9.84,2.54-13.69,5.8h0ZM175.45,337.65c-4.09-2.24-6.81,1.63-6.12,5.38,2.25.6,4.33,1.72,6.1,3.46-.25-.48-2.82-4.33-2.77-4.29,1.46.94,2.59,2.25,3.82,3.44-.89-2.46-2.02-4.55-4.27-6.08-.1-.07,0-.22.11-.17,2.14.97,4.24,3.29,5.74,5.14-.89-2.25-1.72-4.63-3.73-6.16-.09-.07,2.68,1.46,3.84,3.01.43.57,1.08,1.35,1.52,2.17-.77-2.47-1.83-4.57-4.25-5.89h0ZM175.96,368.61c1.23.99,3.57,2.3,3.57,4.02.06.34-1.57-1.25-2.9-1.2-2.49.05-5.49,1.6-6.02,4.26,5.5-2.22,14.41,1.67,21.92,5.28,6.25,3,12.95,3.95,16.08,1.48-8.81-.14-20.1-3.59-25.16-11.67-.59-2.12.69-.13,2.03,1.2,6.77,6.69,13.96,8.68,23.19,8.68,5.46.34,13.25-1.59,15.01-3.85-9.76,2.48-21.38,2.5-30.04-3.21-7.64-5.03-14.55-15.38-9.55-24.57,2.81-5.18,9.87-8.74,15.07-4.48-6.5-9.39-21.14-2.63-20.47,7.93-.47-1.21-1.14-2.31-2.03-3.24.01,0,.03,0,.04,0-3.28-5.8-13.82-4.89-18.25-1.39,3.69-2,8.7-2.07,11.85.59.2.17-.06.49-.26.32-3.51-2.8-8.62-1.78-11.74,1.16,2.66-1.3,6.13-1.49,8.34-.3.21.11.13.5-.13.42-3.56-1-9.11.91-10.14,4.72,6.32-4.06,16.46.07,19.25,6.74,0,.02,0,1.45-.05,1.51-2.39-2.86-6.83-2.84-9.67-.64-2.71,2.11-2.97,5.1-2.16,8.1.76-6.11,8.92-3.84,12.24-1.85h0Z"/>
          <path class="cls-2" d="M682.27,361.83c.46,1.21-.19,3.08-.75,4.26,1.86-.76,4.73-.55,6.28.28,2.36,1.27,6.91,6.21,7.35,9.73-.02.11-.15.15-.23.08-4.45-3.68-5.51-3.12-11-2.07-.32.06-1.92-.09-3.04-.06,1.21,1.85,3.4,3.1,5.4,3.88,1.27.49-2.48.83-2.76.83-5.13,0-8.3-.5-13.33-3.8-2.53-1.65-5.09-3.82-7.44-6.2.28,2.3-.9,6.66-3.83,6.68-.82,0-1.44-.29-1.85-.78-1.53,2.82-7.42,7.21-10.69,4.6-.43-.19-.71-.88.02-.77,5.14-2.58,8.2-7.14,8.15-12.93-.04-5.83-3.72-10.51-8.04-14.06-8.2-6.73-21.99-10.83-32.48-6.76-3.46,1.34-3.68.11,0-1.54,9.98-4.48,20.7-3.65,30.98,1.99,5.54,3.04,9.73,7.42,14.37,11.62,3.75,3.4,9.53,8.37,14.3,7.71-2.17-4.91,6.48-8.31,8.61-2.67h0Z"/>
          <path class="cls-4" d="M674.81,362.18c-1.21,2.76,2.6,4.46,1.3,4.15-.59-.14-1.14-.23-1.52-.5-3.98,1-8.05-1.62-11.21-3.89-4.52-3.25-8.19-7.5-12.62-10.84-5.86-4.43-12.48-7.81-19.77-8.79,7.4,1.65,14.48,5.53,19.44,10.46,7.68,7.65,7.91,21.27-2.57,26,3.34.52,7.1-2.73,8.15-5.66.3-.83,1.44-.43,1.49.31,1.51,1.15,3.18-.23,3.67-1.94,1.01-3.5-1.73-7.63-4.3-9.7-.45-.64.4-1.41,1.01-.91,7.66,6.28,13.51,17.71,25.19,16.71-1.11-.4-5.2-2.95-4.56-5.18.22-.45,1.07-.18,1.42-.05,3.99,1.52,7.72-1.38,11.86-.11-.86-1.12-1.72-2.24-2.78-3.21-2.98-2.59-5.31-2.12-8.8-1.23-.33.09-1.05-.02-.6-.57,1.08-1.3,2.12-2.83,1.71-4.57-.66-3.39-5.42-3.69-6.5-.48h0Z"/>
          <path class="cls-2" d="M714.74,352.32c-3.79-2.22-7.3-1.08-10.53,1.23-.49.35-.11.99.36,1.08,3.42.64,6.25,1.42,7.24,5.15.58,2.2-.55,4.55-1.79,6.29-3.97,5.53-11.35,3.98-16.7,1.89-1.06-.54-1.42-.18-1.08.25,5.46,6.95,15.5,12.58,24.03,7.47,1.58-.95-.05-2.25-2.06-3.21.07,0,.14-.01.21-.02,4.25-.38,6.77-2.29,10.08-4.72,1.86-1.36,3.76-2.65,5.92-3.5,1.42-.57,2.93-.55,4.39-.14,1.15.33,2.44,1.27,3.09,2.24.67-4.69-12.6-11.78-18.63-6.89-.03-2.76-2.29-5.81-4.52-7.12h0Z"/>
          <path class="cls-4" d="M713.38,372.1c-1.38-.58-2.77-.97-3.29-.96-.22,0-.24.3-.02.34,1.57.26,3.49,1.31,4.34,2.81-7.44,3.85-15.81-.27-21.37-5.81l.16.02c6.59,4.46,15.15,3.76,19.62-3.23,2.19-4.55.5-9.92-3.02-12.07.85-.02,1.72.08,2.69.41,1.57.52,2.83,1.61,3.69,2.99,1.2,1.94.48,3.98.59,6.05.02.37.39.6.71.36.49-.37.87-.78,1.15-1.22,3-1.9,5.81-2.76,9.63-1.79,1.56.39,2.86,1.09,4.05,1.93-.89.08-1.79.28-2.7.6-5.42,1.91-8.75,7.48-14.23,9.38-.68.25-1.34.29-1.98.18h0Z"/>
          <path class="cls-2" d="M618,368.27c1.79.63,1.85,2.31,2.98,3.49.4.42,1.06.89,1.58.16,4.27-5.98-3.31-14.98-9.9-12.04,2.97-3.76,9.21-6.12,13.88-4.65,1.91.6,2.47,2.13,3.28,3.62-1.3,4.49-5.06,11.94,2.13,13.28,3.33.12,6.83-3.09,8.42-6.26,2.45-4.87.87-10.36-2.27-14.47-4.3-5.62-12.82-9.67-20.26-8.82.49-1.53-.34-3.46-1.24-4.74-3.71-5.27-11.77-1.01-12.35,4.59-.11.13-.22.25-.32.38-4.86-15.12-29.84-5.14-24.6,9.38,1.42,3.95,6.44,8.07,10.43,6.68.3,4.14-4.56,7.64-10.04,9.69-5.31,1.99-11.32,2.21-14.19,1.59-9.7-.65-19.36-5-27.91-9.49-2.02-1.06-3.89-2.26-5.65-3.57-1.14,1.05,4.23,6.48,10.38,11.19,10.12,7.74,21.41,14.94,34.81,16.91,6.22.91,11.8-.77,17.36-3.4,6.39-3.02,12.92-6.97,20.16-4.74.15.3.5.83.88.5,3.12-2.65-3.4-7.04-5.9-7.25,2.29-1.6,5.56-3.02,8.35-2.04h0Z"/>
          <path class="cls-4" d="M555.35,373.02c-4.98-1.84-9.18-5.1-13.49-8.15,11.77,5.73,29.64,10.81,42.18,4.15,3.06-1.52,8.99-6.46,7.37-12.26-.25-.5-1.01-.22-1.33-.08-5.76,2.48-9.81-3.83-9.83-8.95-.02-9.05,13.1-14.1,19.78-8.6-5.53-2.84-13.74-.72-16,5.39-.84,2.28.2,5.72,1.07,5.01,1.75-6.63,8.8-5.34,12.39-2.2,2.52,2.2,3.8,7.62,2.56,12.25-2.35,8.81-11.1,14.34-19.45,16.19-8.37,1.85-17.32.18-25.24-2.75h0ZM634.19,349.47c5.84,4.93,7.76,12.99,2.56,18.87-1.11,1.26-3.46,3.26-5.29,2.37-2.16-1.04-2.88-3.81-1.9-5.93,1.81-3.92,5.19-6.97,2.75-11.77-.11,0-.24.08-.23.23.13,3.09-.37,5.92-1.63,8.73.56-1.72,1.18-3.42,1.4-4.92,1.05-6.99-4.92-12.49-11.35-13.37,4.92.3,9.84,2.54,13.69,5.8h0ZM609.47,337.65c4.08-2.24,6.81,1.63,6.11,5.38-2.25.6-4.33,1.72-6.1,3.46.25-.48,2.82-4.33,2.78-4.29-1.46.94-2.59,2.25-3.83,3.44.9-2.46,2.02-4.55,4.27-6.08.1-.07,0-.22-.11-.17-2.14.97-4.24,3.29-5.75,5.14.89-2.25,1.72-4.63,3.73-6.16.09-.07-2.68,1.46-3.84,3.01-.43.57-1.08,1.35-1.52,2.17.77-2.47,1.83-4.57,4.25-5.89h0ZM608.95,368.61c-1.23.99-3.57,2.3-3.57,4.02-.06.34,1.57-1.25,2.9-1.2,2.49.05,5.49,1.6,6.02,4.26-5.5-2.22-14.41,1.67-21.92,5.28-6.24,3-12.95,3.95-16.08,1.48,8.81-.14,20.11-3.59,25.16-11.67.58-2.12-.69-.13-2.04,1.2-6.77,6.69-13.96,8.68-23.18,8.68-5.46.34-13.25-1.59-15.01-3.85,9.76,2.48,21.38,2.5,30.04-3.21,7.64-5.03,14.55-15.38,9.55-24.57-2.82-5.18-9.87-8.74-15.07-4.48,6.5-9.39,21.14-2.63,20.48,7.93.47-1.21,1.14-2.31,2.03-3.24-.02,0-.03,0-.04,0,3.27-5.8,13.83-4.89,18.25-1.39-3.69-2-8.69-2.07-11.85.59-.2.17.06.49.26.32,3.51-2.8,8.62-1.78,11.74,1.16-2.66-1.3-6.13-1.49-8.34-.3-.21.11-.13.5.13.42,3.56-1,9.11.91,10.13,4.72-6.32-4.06-16.46.07-19.25,6.74,0,.02,0,1.45.05,1.51,2.4-2.86,6.84-2.84,9.68-.64,2.71,2.11,2.97,5.1,2.16,8.1-.75-6.11-8.92-3.84-12.24-1.85h0Z"/>
          <path class="cls-2" d="M316.83,395.95c-.96-3.31-1.97-5.29-3.52-7.58-4.52-6.66-10.62-12.68-17.33-16.61-15.15-8.97-32.04-13.15-50.19-8.51-9.69,2.48-18.13,8.16-20.59,18.31-1.36,5.62,0,12.04,3.96,16.29,3.86,4.15,11.02,4.38,15.52,1.15,4.44-3.19,5.35-9.81,3.3-14.53.46.43,1.08.78,1.9,1.02,3.45,1.01,6.01-2.08,4.55-4.82,5.65-6.6,23.65-3.78,30.94-1.61,7.13,1.74,13.12,5.59,17.9,10.43,1.12.75,1.95-.83,1.17-1.69-7.32-8.16-16.93-12.64-27.65-14.54-7.56-1.34-18.57-2-25.63,1.96-2.38,1.33-5.22,3.81-4.06,7.49-1.83-2.67-4.95-4.24-9.04-3.25-1.1.26-2.05.71-2.97,1.25-.02.02-.04.05-.06.08-.05.08-.1.18-.15.27-.02.04-.04.07-.07.1-.37,1.01.08,1.7,1.01,2.09,2.3-.49,3.88,2.09,4.05,4.56.19,2.81-3.14,3.92-5.36,3.04-.23-.09-.45-.21-.65-.34-.07-.04-.14-.08-.2-.13,0,0-.02,0-.02-.02-4.74-3.11-2.93-9.62-.5-13.2,4.11-5.49,11.6-8.5,19.71-9.64,11.1-1.55,23.45.34,30.58,3.41,12.87,5.55,25.47,15.1,31.63,26.2.84,1.05,2.65,2.41,1.79-1.2h0Z"/>
          <path class="cls-4" d="M254.84,375.08c6.12-2.09,13.65-2,19.62-1.12,6.56.97,13.87,3.29,11.69,3.74-3.06-.9-12.06-2.7-18.67-2.42-6.22.26-12.11,1.78-13.64,4.56-.03-.04-.06-.08-.09-.12-.42-.44-1.19.21-.82.69.19.25.34.5.45.73,0,.03-.01.06-.02.09-.03.15.05.26.16.3.41,1.42-.73,2.41-2.54,2.47-1.32.01-2.19-.79-2.37-1.41-1.13-4.07,3.37-6.53,6.24-7.51h0Z"/>
          <path class="cls-4" d="M314.55,393.63c-6.39-9.73-17.53-18.07-28.19-22.78-10.86-4.79-22.99-6.35-35.82-4.47-5.38.79-11.12,3.23-15.15,6.26-5.75,4.32-9.36,14.03-2.68,19.47,2.57,2.08,6.37,1.08,8.48-1.51,1.81-3.18.57-6.71-2-8.5,3.23-.54,6.07.82,7.22,5.18,1.21,4.58-1.2,9.7-5.73,11.25-6.17,2.12-11.34-2.02-13.21-7.6-2.12-6.31.02-12.71,4.21-17.61,9.86-11.53,30.3-11.77,43.76-8.62,7.74,1.81,15.34,5.14,21.92,9.51,4.85,3.17,16.41,13.77,17.22,19.41h0Z"/>
          <path class="cls-2" d="M313.92,356.85c2.75,2.23,3.19,6.56-.33,8.3-.06.03-.12.03-.17.02,0,.03,0,.06,0,.09-.17-.09-.35-.13-.52-.15-.22-.12-.58-.57-.83-.58-1.69-.68-2.38.84-2.18,2.06.44,2.72,3.88,5.75,4.37,6.47.86-2.11,3.02-3.7,5.43-3.88.02-.02.05-.04.07-.06.09,0,.17-.02.26-.02.54.07,1.08.19,1.5.46.03.02.06.04.08.06-.03.09-.07.17-.14.25-3.12,3.84,1.58,10.65,4.09,13.56,1.6,1.84,3.59,3.46,5.82,4.46.74.32,1.51.5,2.3.57-2.09-1.09-3.75-2.9-4.37-5.29-.75-2.93.84-6.6-.47-9.27-.49-1-2.13-1.06-1.42-2.29,2.19-2.7,5.54-2.22,8.43-.49,1.29.78,3.89,3.31,5.31,4.54.46-.51.97-.95,1.39-1.26,1.78-1.34,4.39-2.2,6.65-1.91.64.23,1.26.5,1.88.78.03.02.06.05.1.08.02.37-.16.74-.65.9-6.92,2.24-1.9,11.62,1.56,14.45,4.86,3.97,12.04,4.83,18.07,3.8,5.56-.95,17.18-9.24,12.31-15.78-.27-.36-.62-.66-.94-.99-.02.03-.04.07-.06.1-1.18,1.79-3.31,2.73-5.39,2.61-3.26.17-6.52-2.28-7.25-5.42-1.11-4.75,1.11-10.58,6.14-11.99,5.29-1.48,10.73,1.09,14.05,5.19,3.88,5.03,4.09,11.93,2.54,17.88-1.87,7.16-6.7,13.51-11.61,17.55-5.18,4.34-11.63,6.7-18.22,7.71-4.8.74-11.61,1.24-14.98,5.23-1.82,2.15-.46,4.61.72,6.65.03.06.05.11.07.17-.23-.04-.46-.05-.7,0-.03,0-.05-.01-.08-.02-.06,0-.13-.02-.19-.03-.45-.15-.89-.3-1.33-.46-.02-.02-.03-.04-.05-.06-3.55-1.59-7.32-6.01-6.37-10,.04-.15.09-.28.13-.42-5.39-2.93-10.16-5.34-16.58-5.03-2.92.14-5.78,1.04-8.27,2.58-.7.43-1.29.9-1.81,1.41-.04-.08-.07-.15-.11-.23-.12-.13-.19-.27-.23-.43-.07-.29-.18-.55-.3-.81-.03-.08-.05-.13-.04-.09-.01-.03-.02-.06-.03-.08.02-.02.05-.03.07-.05-1.24-3.85,2.28-7.47,5.75-9.14-3.13.7-6.37-1.37-8.8-3.2-1.78-1.34-3.39-2.92-5.4-3.93-2.8-1.4-4.93,0-6.96,1.88-.04.08-.11.15-.2.19-.07.07-.15.14-.23.21-.26.25-.64-.03-.63-.34.04-.62.16-1.17.35-1.65.37-2.71,2.31-4.9,4.75-6.22,1.54-.83,3.25-.83,4.97-.56-3.19-2.84-5.37-7.66-6.27-11.11-1.48-5.68-1.02-11.62,3.19-16.04,3.18-3.34,8.17-3.81,11.75-.9h0Z"/>
          <path class="cls-4" d="M328.32,372.1s.02.22.02.23c1.68.43,2.48,1.93,2.4,3.76-.08,1.68-.43,3.29-.25,4.97.34,3.21,2.79,5.42,5.79,6.15.93.23.83,1.32.23,1.81-.95,1.25-3.85.67-5.07.38-3.08-.75-5.65-3.09-7.69-5.38-1.96-2.2-3.59-4.88-4.45-7.71-.46-1.52-1-3.91-.47-5.68-2.36,1.11-3.94,2.69-3.39,5.89.12.71-.97,1.05-1.23.37-.27-.72-.37-1.44-.33-2.13-1.05-1.88-2.57-3.41-3.79-5.18-1.2-1.76-2.24-3.98-.68-5.75-1.41.06-2.87.8-3.84,1.94-3.07,3.63-1.66,8.94,1.64,13.55,2.22,3.12,4.1,4.24,5.89,5.29.18.15.1.52-.18.47-2-.41-4.16-2.38-5.8-4.16-5.46-5.91-6.83-16.36,1.65-18.55,1.9-.4,4.03.37,4.54,2.11,2.28-2.94,1.43-6.07-2.02-7.62-3.98-1.16-7.43,1.18-9.65,4.48-2.39,3.84-2.16,8.69-1.06,13.01,1.69,5.08,5.32,9.44,9.07,11,.34.24.72.46,1.01.77.13.13.21.23.24.32-.1,1.29-5.25-.45-6.62-.25-2.81-.38-5.1,1.06-6.53,3.18,2.18-.99,5.28-.51,7.34.73,2.2,1.33,3.97,3.3,5.93,4.94,1.9,1.59,3.74,2.29,5.95,2.48.43.09.86.15,1.3.17.24.05.48.11.72.14-.01.02-.01.04-.03.05.04-.01.08-.02.13-.04.14.02.28.05.43.07.09.01.17,0,.24-.02.04.12,0,.26-.13.3-2.23.71-4.11,1.89-5.56,3.74-.59.75-.89,1.53-1.1,2.32,1.19-1.27,3.09-2.12,4.51-2.52,3.26-.94,6.48-.76,9.76-.08,7.14,1.49,14.07,5.37,21.47,3.7.43-.16.85-.33,1.22-.54.6-.33,1.13.59.62,1.01-2.73,2.23-6.52,1.51-9.4,3.32-2.76,1.73-.83,5.88.65,7.72.74.91,1.7,1.64,2.58,2.42-.7-1.86-.5-3.96.81-5.82,2.18-3.06,6.71-4.15,10.13-4.94,4.16-.97,8.43-1.17,12.52-2.43,7.55-2.32,13.88-7.32,18.05-13.99,3.29-5.26,5.37-11.4,4.6-17.62-.82-6.57-5.55-11.64-12.17-12.43-6.36-.77-10.52,6.82-7.74,11.99-1.65-4.84,1.57-11.57,7.51-10.29.35.07.35.5.02.6-3.18.94-5.86,1.86-6.42,5.59-.29,1.93.39,3.99,1.66,5.42,1.94,2.17,5.48,1.55,7.02-.36,1.21-1.98.68-3.84-.27-4.83-.09-.32.38-.49.57-.28,0,0,.01,0,.02,0,1.02.33,1.56.99,1.76,1.79,3.66,3.23,3.43,8.97,1.4,12.72-2.56,4.55-8.73,9.16-15.06,10.15-7.3,1.14-15.48-1.12-20.45-6.66-3.16-3.53-4.8-11.04-.87-14.39-1.19.23-2.33.65-3.46,1.25-.96.51-1.77,1.25-2.41,2.11-.55.74-.49,1.59-.87,2.37-.14.28-.5.3-.65.02-.49-.92-.2-1.92.41-2.82-2.37-2.15-7.91-8.78-12.16-4.35h0ZM313.27,406.59h0c2.41-1.4,5.11-2.31,7.16-2.64,2.38-.39,5.13-.34,7.87.12-.27-.08-.54-.18-.81-.26-2.54-.77-5.18-1.21-7.83-.97-2.17.19-3.79,1.18-5.46,2.31-.39.42-.71.9-.95,1.44h0Z"/>
          <path class="cls-2" d="M356.56,395.71c4.95,1.27,9.47,1.62,14.62,1.08,2.75-.41,5.52-1.42,8-2.47.5-.21,1.97-1.05,2.79-1.16.03.04.08.07.08.13,0,.38-1.19,1.21-1.99,1.7-2.39,1.49-6.6,2.86-7.48,3.08-3.76.93-13.95,2.3-16.59-1.58-.29-.43.08-.92.57-.79h0Z"/>
          <path class="cls-2" d="M337.76,386.4c2.46,1.25,4.31,3.97,2.76,6.69-.12.21-.26.4-.4.58,1.29-.37,2.08-1.38,2.4-3.24.08-.44.67-.46.76-.02.8,3.79-2.31,5.27-5.55,5.08.34.1.69.2,1.03.3.81.2,1.62.28,2.59.05,1.83-.43,2.77-1.79,3.49-3.41.12-.26.49-.23.54.05.37,1.92-1.11,3.61-2.98,4.51.42.14.83.28,1.25.41,1.89-.32,2.96-1.32,3.93-3.03.12-.2.38-.04.38.14-.02,1.6-.91,2.78-2.18,3.54.58.17,1.16.33,1.75.47.12-.03.23-.06.35-.1,1.21-.43,1.85-1.41,2.63-2.35.14-.17.46-.09.42.16-.15.94-.86,1.92-1.79,2.64.69.13,1.37.26,2.06.36.13-.07.26-.13.4-.21.7-.36,1.25-.99,1.61-1.67.21-.4.88-.18.68.25-.26.58-.73,1.29-1.3,1.83,9.29,1.21,18.17.94,26.98-2.88.3-.11.58.28.3.5-5.31,3.72-13.79,4.27-20.51,4.62-5.5-.04-22.7-2.43-27.28-8.78-.18-.25.05-.53.33-.46.53.73,4.36,1.46,4.9.85,1.07-.14,1.89-1.11,2.12-2.12.38-1.66-.86-3.04-2.08-3.96-.39-.29-.05-1.01.42-.78h0Z"/>
          <path class="cls-2" d="M315.09,391.05c5.05,1.18,9.72,4.08,14.47,6.11,4.6,1.97,9.43,3.43,14.36,4.31,9.99,1.78,21.49,1.07,31.31-1.44.32-.08.47.44.16.56-9.44,3.5-20.8,3.82-30.68,2.44-4.77-.67-9.37-2.1-13.82-3.89-5.4-2.18-10.87-4.73-16.08-7.33-.47-.23-.22-.86.28-.75h0Z"/>
          <path class="cls-2" d="M316.83,329.57c-.96,3.31-1.97,5.29-3.52,7.58-4.52,6.66-10.62,12.68-17.33,16.61-15.15,8.97-32.04,13.16-50.19,8.51-9.69-2.48-18.13-8.16-20.59-18.31-1.36-5.62,0-12.04,3.96-16.29,3.86-4.15,11.02-4.38,15.52-1.16,4.44,3.19,5.35,9.82,3.3,14.53.46-.43,1.08-.78,1.9-1.02,3.45-1.01,6.01,2.08,4.55,4.82,5.65,6.6,23.65,3.78,30.94,1.61,7.13-1.74,13.12-5.59,17.9-10.43,1.12-.75,1.95.83,1.17,1.69-7.32,8.16-16.93,12.64-27.65,14.55-7.56,1.34-18.57,2-25.63-1.96-2.38-1.34-5.22-3.81-4.06-7.49-1.83,2.66-4.95,4.23-9.04,3.25-1.1-.27-2.05-.72-2.97-1.25-.02-.03-.04-.06-.06-.08-.05-.09-.1-.18-.15-.28-.02-.04-.04-.07-.07-.1-.37-1.01.08-1.7,1.01-2.09,2.3.5,3.88-2.09,4.05-4.55.19-2.81-3.14-3.92-5.36-3.04-.23.09-.45.21-.65.34-.07.04-.14.08-.2.13,0,0-.02.01-.02.02-4.74,3.11-2.93,9.62-.5,13.21,4.11,5.49,11.6,8.5,19.71,9.63,11.1,1.55,23.45-.34,30.58-3.41,12.87-5.55,25.47-15.1,31.63-26.2.84-1.05,2.65-2.41,1.79,1.2h0Z"/>
          <path class="cls-4" d="M254.84,350.44c6.12,2.09,13.65,2.01,19.62,1.12,6.56-.97,13.87-3.29,11.69-3.74-3.06.9-12.06,2.71-18.67,2.42-6.22-.27-12.11-1.79-13.64-4.56-.03.04-.06.08-.09.11-.42.44-1.19-.2-.82-.69.19-.25.34-.5.45-.73,0-.03-.01-.06-.02-.08-.03-.15.05-.26.16-.3.41-1.42-.73-2.4-2.54-2.47-1.32-.01-2.19.78-2.37,1.41-1.13,4.07,3.37,6.53,6.24,7.5h0Z"/>
          <path class="cls-4" d="M314.55,331.89c-6.39,9.73-17.53,18.07-28.19,22.77-10.86,4.79-22.99,6.35-35.82,4.47-5.38-.79-11.12-3.23-15.15-6.26-5.75-4.33-9.36-14.03-2.68-19.46,2.57-2.08,6.37-1.08,8.48,1.51,1.81,3.18.57,6.71-2,8.5,3.23.54,6.07-.81,7.22-5.17,1.21-4.59-1.2-9.7-5.73-11.25-6.17-2.12-11.34,2.02-13.21,7.6-2.12,6.31.02,12.71,4.21,17.61,9.86,11.53,30.3,11.77,43.76,8.62,7.74-1.81,15.34-5.14,21.92-9.51,4.85-3.17,16.41-13.77,17.22-19.41h0Z"/>
          <path class="cls-2" d="M313.92,368.67c2.75-2.23,3.19-6.56-.33-8.31-.06-.03-.12-.03-.17-.02,0-.03,0-.06,0-.09-.17.09-.35.13-.52.15-.22.12-.58.57-.83.57-1.69.68-2.38-.83-2.18-2.06.44-2.72,3.88-5.74,4.37-6.46.86,2.11,3.02,3.7,5.43,3.88.02.02.05.04.07.05.09,0,.17.02.26.02.54-.07,1.08-.19,1.5-.46.03-.02.06-.04.08-.06-.03-.08-.07-.17-.14-.25-3.12-3.83,1.58-10.65,4.09-13.55,1.6-1.84,3.59-3.46,5.82-4.46.74-.33,1.51-.5,2.3-.57-2.09,1.09-3.75,2.89-4.37,5.29-.75,2.94.84,6.6-.47,9.27-.49,1-2.13,1.06-1.42,2.29,2.19,2.71,5.54,2.23,8.43.49,1.29-.77,3.89-3.31,5.31-4.54.46.5.97.94,1.39,1.26,1.78,1.34,4.39,2.2,6.65,1.92.64-.23,1.26-.5,1.88-.78.03-.03.06-.05.1-.08.02-.38-.16-.74-.65-.9-6.92-2.24-1.9-11.62,1.56-14.45,4.86-3.98,12.04-4.83,18.07-3.8,5.56.95,17.18,9.24,12.31,15.78-.27.36-.62.66-.94.98-.02-.03-.04-.06-.06-.1-1.18-1.79-3.31-2.73-5.39-2.6-3.26-.17-6.52,2.28-7.25,5.42-1.11,4.75,1.11,10.58,6.14,11.99,5.29,1.48,10.73-1.09,14.05-5.19,3.88-5.02,4.09-11.93,2.54-17.88-1.87-7.16-6.7-13.51-11.61-17.55-5.18-4.34-11.63-6.7-18.22-7.71-4.8-.74-11.61-1.24-14.98-5.23-1.82-2.15-.46-4.61.72-6.64.03-.05.05-.11.07-.17-.23.03-.46.05-.7,0-.03,0-.05.01-.08.02-.06,0-.13.02-.19.03-.45.15-.89.3-1.33.46-.02.02-.03.04-.05.06-3.55,1.59-7.32,6.01-6.37,10,.04.15.09.28.13.42-5.39,2.93-10.16,5.34-16.58,5.03-2.92-.14-5.78-1.04-8.27-2.58-.7-.43-1.29-.9-1.81-1.41-.04.08-.07.15-.11.23-.12.13-.19.27-.23.43-.07.29-.18.55-.3.8-.03.09-.05.13-.04.1-.01.03-.02.06-.03.08.02.02.05.04.07.05-1.24,3.85,2.28,7.48,5.75,9.14-3.13-.7-6.37,1.37-8.8,3.2-1.78,1.34-3.39,2.92-5.4,3.93-2.8,1.4-4.93,0-6.96-1.88-.04-.08-.11-.15-.2-.18-.07-.07-.15-.14-.23-.21-.26-.25-.64.02-.63.34.04.62.16,1.16.35,1.64.37,2.71,2.31,4.9,4.75,6.21,1.54.83,3.25.83,4.97.56-3.19,2.85-5.37,7.66-6.27,11.12-1.48,5.68-1.02,11.62,3.19,16.03,3.18,3.35,8.17,3.82,11.75.9h0Z"/>
          <path class="cls-4" d="M328.32,353.42s.02-.22.02-.23c1.68-.43,2.48-1.93,2.4-3.76-.08-1.68-.43-3.29-.25-4.97.34-3.21,2.79-5.42,5.79-6.15.93-.22.83-1.32.23-1.81-.95-1.25-3.85-.67-5.07-.37-3.08.75-5.65,3.08-7.69,5.38-1.96,2.2-3.59,4.88-4.45,7.71-.46,1.52-1,3.9-.47,5.67-2.36-1.1-3.94-2.69-3.39-5.9.12-.71-.97-1.05-1.23-.36-.27.72-.37,1.44-.33,2.13-1.05,1.88-2.57,3.41-3.79,5.18-1.2,1.76-2.24,3.98-.68,5.75-1.41-.06-2.87-.79-3.84-1.94-3.07-3.64-1.66-8.94,1.64-13.55,2.22-3.11,4.1-4.24,5.89-5.29.18-.15.1-.52-.18-.47-2,.4-4.16,2.38-5.8,4.15-5.46,5.91-6.83,16.37,1.65,18.55,1.9.4,4.03-.37,4.54-2.11,2.28,2.94,1.43,6.07-2.02,7.62-3.98,1.16-7.43-1.18-9.65-4.49-2.39-3.84-2.16-8.69-1.06-13.01,1.69-5.08,5.32-9.44,9.07-11,.34-.24.72-.46,1.01-.77.13-.13.21-.23.24-.32-.1-1.29-5.25.45-6.62.25-2.81.38-5.1-1.06-6.53-3.18,2.18.99,5.28.52,7.34-.73,2.2-1.33,3.97-3.31,5.93-4.94,1.9-1.59,3.74-2.28,5.95-2.48.43-.09.86-.15,1.3-.17.24-.05.48-.11.72-.15-.01-.02-.01-.04-.03-.05.04.02.08.02.13.04.14-.02.28-.05.43-.07.09,0,.17,0,.24.02.04-.12,0-.26-.13-.3-2.23-.7-4.11-1.89-5.56-3.74-.59-.75-.89-1.53-1.1-2.32,1.19,1.27,3.09,2.11,4.51,2.52,3.26.94,6.48.76,9.76.08,7.14-1.49,14.07-5.37,21.47-3.7.43.15.85.33,1.22.53.6.33,1.13-.59.62-1.01-2.73-2.22-6.52-1.51-9.4-3.32-2.76-1.73-.83-5.88.65-7.72.74-.91,1.7-1.64,2.58-2.42-.7,1.87-.5,3.97.81,5.82,2.18,3.06,6.71,4.15,10.13,4.94,4.16.97,8.43,1.17,12.52,2.43,7.55,2.32,13.88,7.32,18.05,13.99,3.29,5.26,5.37,11.4,4.6,17.62-.82,6.57-5.55,11.64-12.17,12.43-6.36.77-10.52-6.82-7.74-11.99-1.65,4.84,1.57,11.57,7.51,10.29.35-.07.35-.5.02-.6-3.18-.93-5.86-1.86-6.42-5.59-.29-1.93.39-3.99,1.66-5.42,1.94-2.17,5.48-1.55,7.02.37,1.21,1.98.68,3.83-.27,4.83-.09.32.38.49.57.28,0,0,.01,0,.02,0,1.02-.33,1.56-1,1.76-1.79,3.66-3.22,3.43-8.97,1.4-12.72-2.56-4.55-8.73-9.16-15.06-10.15-7.3-1.14-15.48,1.11-20.45,6.66-3.16,3.53-4.8,11.04-.87,14.39-1.19-.23-2.33-.66-3.46-1.25-.96-.51-1.77-1.25-2.41-2.11-.55-.73-.49-1.59-.87-2.37-.14-.28-.5-.31-.65-.02-.49.92-.2,1.92.41,2.82-2.37,2.15-7.91,8.78-12.16,4.35h0ZM313.27,318.93h0c2.41,1.4,5.11,2.31,7.16,2.64,2.38.39,5.13.34,7.87-.12-.27.09-.54.18-.81.26-2.54.77-5.18,1.2-7.83.97-2.17-.19-3.79-1.18-5.46-2.31-.39-.42-.71-.9-.95-1.44h0Z"/>
          <path class="cls-2" d="M356.56,329.81c4.95-1.27,9.47-1.62,14.62-1.08,2.75.41,5.52,1.42,8,2.47.5.21,1.97,1.05,2.79,1.15.03-.04.08-.07.08-.13,0-.38-1.19-1.21-1.99-1.7-2.39-1.49-6.6-2.86-7.48-3.08-3.76-.92-13.95-2.3-16.59,1.58-.29.43.08.92.57.79h0Z"/>
          <path class="cls-2" d="M337.76,339.12c2.46-1.25,4.31-3.98,2.76-6.69-.12-.21-.26-.41-.4-.58,1.29.37,2.08,1.39,2.4,3.25.08.43.67.46.76.02.8-3.79-2.31-5.27-5.55-5.08.34-.1.69-.2,1.03-.3.81-.19,1.62-.28,2.59-.05,1.83.44,2.77,1.79,3.49,3.41.12.26.49.23.54-.05.37-1.91-1.11-3.61-2.98-4.5.42-.14.83-.28,1.25-.41,1.89.32,2.96,1.32,3.93,3.03.12.2.38.05.38-.14-.02-1.59-.91-2.78-2.18-3.54.58-.17,1.16-.33,1.75-.47.12.03.23.06.35.1,1.21.43,1.85,1.41,2.63,2.36.14.17.46.09.42-.16-.15-.94-.86-1.92-1.79-2.65.69-.13,1.37-.25,2.06-.36.13.06.26.13.4.2.7.37,1.25.99,1.61,1.68.21.4.88.19.68-.25-.26-.58-.73-1.29-1.3-1.83,9.29-1.21,18.17-.94,26.98,2.88.3.11.58-.28.3-.49-5.31-3.72-13.79-4.28-20.51-4.62-5.5.05-22.7,2.44-27.28,8.78-.18.25.05.53.33.46.53-.73,4.36-1.46,4.9-.85,1.07.14,1.89,1.11,2.12,2.12.38,1.67-.86,3.05-2.08,3.96-.39.29-.05,1.02.42.78h0Z"/>
          <path class="cls-2" d="M315.09,334.47c5.05-1.18,9.72-4.07,14.47-6.1,4.6-1.97,9.43-3.43,14.36-4.31,9.99-1.78,21.49-1.07,31.31,1.44.32.09.47-.44.16-.56-9.44-3.5-20.8-3.82-30.68-2.44-4.77.67-9.37,2.1-13.82,3.9-5.4,2.18-10.87,4.73-16.08,7.32-.47.23-.22.86.28.75h0Z"/>
          <path class="cls-2" d="M468.09,395.95c.96-3.31,1.96-5.29,3.51-7.58,4.52-6.66,10.62-12.68,17.33-16.61,15.15-8.97,32.05-13.15,50.19-8.51,9.69,2.48,18.13,8.16,20.59,18.31,1.36,5.62,0,12.04-3.96,16.29-3.86,4.15-11.02,4.38-15.52,1.15-4.44-3.19-5.34-9.81-3.29-14.53-.46.43-1.08.78-1.9,1.02-3.45,1.01-6.01-2.08-4.55-4.82-5.65-6.6-23.65-3.78-30.94-1.61-7.13,1.74-13.12,5.59-17.9,10.43-1.12.75-1.95-.83-1.18-1.69,7.32-8.16,16.93-12.64,27.65-14.54,7.56-1.34,18.56-2,25.63,1.96,2.38,1.33,5.23,3.81,4.07,7.49,1.83-2.67,4.95-4.24,9.04-3.25,1.1.26,2.05.71,2.97,1.25.02.02.04.05.06.08.05.08.11.18.15.27.02.04.05.07.07.1.37,1.01-.08,1.7-1.01,2.09-2.3-.49-3.87,2.09-4.04,4.56-.2,2.81,3.14,3.92,5.36,3.04.23-.09.45-.21.65-.34.07-.04.14-.08.2-.13,0,0,.02,0,.02-.02,4.74-3.11,2.93-9.62.5-13.2-4.11-5.49-11.6-8.5-19.71-9.64-11.1-1.55-23.45.34-30.58,3.41-12.87,5.55-25.47,15.1-31.63,26.2-.84,1.05-2.65,2.41-1.79-1.2h0Z"/>
          <path class="cls-4" d="M530.07,375.08c-6.11-2.09-13.65-2-19.62-1.12-6.56.97-13.87,3.29-11.69,3.74,3.06-.9,12.06-2.7,18.67-2.42,6.21.26,12.11,1.78,13.64,4.56.03-.04.06-.08.09-.12.42-.44,1.19.21.82.69-.19.25-.34.5-.45.73,0,.03.01.06.02.09.02.15-.05.26-.16.3-.41,1.42.73,2.41,2.54,2.47,1.33.01,2.19-.79,2.37-1.41,1.13-4.07-3.37-6.53-6.24-7.51h0Z"/>
          <path class="cls-4" d="M470.37,393.63c6.39-9.73,17.53-18.07,28.19-22.78,10.87-4.79,22.99-6.35,35.82-4.47,5.37.79,11.12,3.23,15.15,6.26,5.75,4.32,9.36,14.03,2.68,19.47-2.57,2.08-6.37,1.08-8.47-1.51-1.81-3.18-.57-6.71,2-8.5-3.23-.54-6.07.82-7.21,5.18-1.2,4.58,1.2,9.7,5.73,11.25,6.17,2.12,11.34-2.02,13.22-7.6,2.12-6.31-.02-12.71-4.21-17.61-9.86-11.53-30.3-11.77-43.76-8.62-7.74,1.81-15.34,5.14-21.91,9.51-4.85,3.17-16.41,13.77-17.22,19.41h0Z"/>
          <path class="cls-2" d="M470.99,356.85c-2.75,2.23-3.18,6.56.34,8.3.06.03.11.03.17.02,0,.03,0,.06,0,.09.17-.09.35-.13.52-.15.22-.12.58-.57.83-.58,1.69-.68,2.38.84,2.18,2.06-.44,2.72-3.88,5.75-4.37,6.47-.86-2.11-3.02-3.7-5.43-3.88-.02-.02-.04-.04-.07-.06-.08,0-.17-.02-.26-.02-.54.07-1.08.19-1.5.46-.03.02-.06.04-.08.06.02.09.07.17.13.25,3.12,3.84-1.57,10.65-4.09,13.56-1.6,1.84-3.59,3.46-5.83,4.46-.73.32-1.51.5-2.3.57,2.09-1.09,3.74-2.9,4.37-5.29.75-2.93-.84-6.6.47-9.27.49-1,2.13-1.06,1.42-2.29-2.19-2.7-5.54-2.22-8.42-.49-1.29.78-3.89,3.31-5.31,4.54-.46-.51-.97-.95-1.39-1.26-1.78-1.34-4.39-2.2-6.65-1.91-.64.23-1.26.5-1.88.78-.03.02-.06.05-.09.08-.02.37.16.74.64.9,6.93,2.24,1.9,11.62-1.56,14.45-4.86,3.97-12.05,4.83-18.07,3.8-5.56-.95-17.18-9.24-12.31-15.78.27-.36.62-.66.94-.99.02.03.04.07.06.1,1.18,1.79,3.31,2.73,5.39,2.61,3.25.17,6.51-2.28,7.25-5.42,1.11-4.75-1.11-10.58-6.14-11.99-5.29-1.48-10.73,1.09-14.05,5.19-3.88,5.03-4.09,11.93-2.54,17.88,1.87,7.16,6.71,13.51,11.61,17.55,5.19,4.34,11.63,6.7,18.22,7.71,4.79.74,11.61,1.24,14.98,5.23,1.82,2.15.46,4.61-.72,6.65-.03.06-.05.11-.07.17.23-.04.46-.05.7,0,.03,0,.05-.01.08-.02.06,0,.13-.02.19-.03.44-.15.88-.3,1.33-.46.02-.02.03-.04.05-.06,3.55-1.59,7.32-6.01,6.37-10-.04-.15-.09-.28-.13-.42,5.39-2.93,10.16-5.34,16.58-5.03,2.92.14,5.78,1.04,8.26,2.58.69.43,1.29.9,1.81,1.41.04-.08.07-.15.11-.23.12-.13.2-.27.23-.43.07-.29.17-.55.3-.81.03-.08.05-.13.04-.09.01-.03.02-.06.04-.08-.02-.02-.05-.03-.07-.05,1.25-3.85-2.28-7.47-5.75-9.14,3.13.7,6.37-1.37,8.8-3.2,1.78-1.34,3.4-2.92,5.4-3.93,2.8-1.4,4.93,0,6.96,1.88.04.08.12.15.2.19.08.07.15.14.22.21.26.25.65-.03.63-.34-.04-.62-.16-1.17-.35-1.65-.37-2.71-2.3-4.9-4.75-6.22-1.54-.83-3.25-.83-4.97-.56,3.19-2.84,5.37-7.66,6.27-11.11,1.48-5.68,1.02-11.62-3.19-16.04-3.19-3.34-8.17-3.81-11.76-.9h0Z"/>
          <path class="cls-4" d="M456.6,372.1s-.02.22-.02.23c-1.68.43-2.48,1.93-2.4,3.76.07,1.68.43,3.29.25,4.97-.34,3.21-2.79,5.42-5.78,6.15-.92.23-.83,1.32-.24,1.81.95,1.25,3.85.67,5.07.38,3.08-.75,5.65-3.09,7.69-5.38,1.96-2.2,3.59-4.88,4.45-7.71.47-1.52,1.01-3.91.47-5.68,2.37,1.11,3.94,2.69,3.4,5.89-.12.71.97,1.05,1.23.37.27-.72.37-1.44.33-2.13,1.05-1.88,2.57-3.41,3.79-5.18,1.2-1.76,2.24-3.98.68-5.75,1.41.06,2.88.8,3.85,1.94,3.07,3.63,1.65,8.94-1.64,13.55-2.22,3.12-4.09,4.24-5.89,5.29-.18.15-.09.52.18.47,2-.41,4.16-2.38,5.8-4.16,5.47-5.91,6.84-16.36-1.65-18.55-1.9-.4-4.03.37-4.54,2.11-2.27-2.94-1.43-6.07,2.02-7.62,3.98-1.16,7.43,1.18,9.65,4.48,2.39,3.84,2.17,8.69,1.05,13.01-1.68,5.08-5.31,9.44-9.07,11-.34.24-.73.46-1.01.77-.13.13-.21.23-.24.32.1,1.29,5.25-.45,6.62-.25,2.8-.38,5.1,1.06,6.53,3.18-2.18-.99-5.27-.51-7.34.73-2.2,1.33-3.97,3.3-5.93,4.94-1.9,1.59-3.75,2.29-5.95,2.48-.43.09-.86.15-1.29.17-.24.05-.48.11-.73.14,0,.02.02.04.03.05-.04-.01-.08-.02-.12-.04-.15.02-.29.05-.43.07-.09.01-.17,0-.24-.02-.04.12,0,.26.13.3,2.23.71,4.11,1.89,5.56,3.74.59.75.9,1.53,1.1,2.32-1.19-1.27-3.09-2.12-4.51-2.52-3.26-.94-6.48-.76-9.77-.08-7.14,1.49-14.07,5.37-21.47,3.7-.43-.16-.84-.33-1.22-.54-.6-.33-1.13.59-.61,1.01,2.73,2.23,6.52,1.51,9.4,3.32,2.76,1.73.83,5.88-.65,7.72-.74.91-1.7,1.64-2.58,2.42.7-1.86.51-3.96-.81-5.82-2.17-3.06-6.71-4.15-10.13-4.94-4.16-.97-8.43-1.17-12.52-2.43-7.55-2.32-13.88-7.32-18.05-13.99-3.29-5.26-5.37-11.4-4.6-17.62.82-6.57,5.55-11.64,12.17-12.43,6.36-.77,10.52,6.82,7.75,11.99,1.66-4.84-1.57-11.57-7.51-10.29-.35.07-.35.5-.02.6,3.18.94,5.86,1.86,6.42,5.59.29,1.93-.39,3.99-1.66,5.42-1.94,2.17-5.48,1.55-7.02-.36-1.21-1.98-.68-3.84.28-4.83.09-.32-.38-.49-.57-.28,0,0-.02,0-.02,0-1.02.33-1.56.99-1.77,1.79-3.66,3.23-3.43,8.97-1.4,12.72,2.56,4.55,8.73,9.16,15.06,10.15,7.3,1.14,15.48-1.12,20.45-6.66,3.16-3.53,4.8-11.04.87-14.39,1.2.23,2.33.65,3.46,1.25.95.51,1.77,1.25,2.41,2.11.55.74.49,1.59.87,2.37.14.28.5.3.65.02.5-.92.2-1.92-.41-2.82,2.37-2.15,7.92-8.78,12.17-4.35h0ZM471.64,406.59h0c-2.41-1.4-5.11-2.31-7.16-2.64-2.38-.39-5.14-.34-7.87.12.27-.08.53-.18.8-.26,2.54-.77,5.18-1.21,7.83-.97,2.17.19,3.79,1.18,5.46,2.31.39.42.71.9.95,1.44h0Z"/>
          <path class="cls-2" d="M428.36,395.71c-4.95,1.27-9.47,1.62-14.63,1.08-2.75-.41-5.52-1.42-8-2.47-.5-.21-1.97-1.05-2.78-1.16-.04.04-.09.07-.09.13,0,.38,1.19,1.21,1.99,1.7,2.39,1.49,6.6,2.86,7.48,3.08,3.76.93,13.96,2.3,16.59-1.58.29-.43-.08-.92-.57-.79h0Z"/>
          <path class="cls-2" d="M447.16,386.4c-2.46,1.25-4.31,3.97-2.77,6.69.12.21.26.4.4.58-1.29-.37-2.08-1.38-2.4-3.24-.07-.44-.67-.46-.77-.02-.79,3.79,2.31,5.27,5.55,5.08-.34.1-.69.2-1.03.3-.81.2-1.62.28-2.59.05-1.84-.43-2.77-1.79-3.49-3.41-.11-.26-.49-.23-.54.05-.37,1.92,1.11,3.61,2.99,4.51-.42.14-.83.28-1.25.41-1.89-.32-2.95-1.32-3.93-3.03-.11-.2-.38-.04-.38.14.02,1.6.91,2.78,2.17,3.54-.58.17-1.16.33-1.75.47-.12-.03-.23-.06-.34-.1-1.21-.43-1.85-1.41-2.63-2.35-.14-.17-.47-.09-.43.16.16.94.87,1.92,1.79,2.64-.68.13-1.37.26-2.06.36-.13-.07-.26-.13-.4-.21-.7-.36-1.25-.99-1.62-1.67-.21-.4-.88-.18-.68.25.26.58.73,1.29,1.31,1.83-9.3,1.21-18.17.94-26.98-2.88-.3-.11-.58.28-.3.5,5.31,3.72,13.79,4.27,20.51,4.62,5.5-.04,22.7-2.43,27.28-8.78.18-.25-.05-.53-.33-.46-.53.73-4.36,1.46-4.9.85-1.07-.14-1.89-1.11-2.13-2.12-.37-1.66.86-3.04,2.09-3.96.39-.29.05-1.01-.41-.78h0Z"/>
          <path class="cls-2" d="M469.82,391.05c-5.06,1.18-9.72,4.08-14.47,6.11-4.6,1.97-9.43,3.43-14.36,4.31-9.99,1.78-21.49,1.07-31.32-1.44-.32-.08-.47.44-.16.56,9.44,3.5,20.8,3.82,30.68,2.44,4.77-.67,9.38-2.1,13.82-3.89,5.4-2.18,10.87-4.73,16.08-7.33.47-.23.22-.86-.28-.75h0Z"/>
          <path class="cls-2" d="M468.09,329.57c.96,3.31,1.96,5.29,3.51,7.58,4.52,6.66,10.62,12.68,17.33,16.61,15.15,8.97,32.05,13.16,50.19,8.51,9.69-2.48,18.13-8.16,20.59-18.31,1.36-5.62,0-12.04-3.96-16.29-3.86-4.15-11.02-4.38-15.52-1.16-4.44,3.19-5.34,9.82-3.29,14.53-.46-.43-1.08-.78-1.9-1.02-3.45-1.01-6.01,2.08-4.55,4.82-5.65,6.6-23.65,3.78-30.94,1.61-7.13-1.74-13.12-5.59-17.9-10.43-1.12-.75-1.95.83-1.18,1.69,7.32,8.16,16.93,12.64,27.65,14.55,7.56,1.34,18.56,2,25.63-1.96,2.38-1.34,5.23-3.81,4.07-7.49,1.83,2.66,4.95,4.23,9.04,3.25,1.1-.27,2.05-.72,2.97-1.25.02-.03.04-.06.06-.08.05-.09.11-.18.15-.28.02-.04.05-.07.07-.1.37-1.01-.08-1.7-1.01-2.09-2.3.5-3.87-2.09-4.04-4.55-.2-2.81,3.14-3.92,5.36-3.04.23.09.45.21.65.34.07.04.14.08.2.13,0,0,.02.01.02.02,4.74,3.11,2.93,9.62.5,13.21-4.11,5.49-11.6,8.5-19.71,9.63-11.1,1.55-23.45-.34-30.58-3.41-12.87-5.55-25.47-15.1-31.63-26.2-.84-1.05-2.65-2.41-1.79,1.2h0Z"/>
          <path class="cls-4" d="M530.07,350.44c-6.11,2.09-13.65,2.01-19.62,1.12-6.56-.97-13.87-3.29-11.69-3.74,3.06.9,12.06,2.71,18.67,2.42,6.21-.27,12.11-1.79,13.64-4.56.03.04.06.08.09.11.42.44,1.19-.2.82-.69-.19-.25-.34-.5-.45-.73,0-.03.01-.06.02-.08.02-.15-.05-.26-.16-.3-.41-1.42.73-2.4,2.54-2.47,1.33-.01,2.19.78,2.37,1.41,1.13,4.07-3.37,6.53-6.24,7.5h0Z"/>
          <path class="cls-4" d="M470.37,331.89c6.39,9.73,17.53,18.07,28.19,22.77,10.87,4.79,22.99,6.35,35.82,4.47,5.37-.79,11.12-3.23,15.15-6.26,5.75-4.33,9.36-14.03,2.68-19.46-2.57-2.08-6.37-1.08-8.47,1.51-1.81,3.18-.57,6.71,2,8.5-3.23.54-6.07-.81-7.21-5.17-1.2-4.59,1.2-9.7,5.73-11.25,6.17-2.12,11.34,2.02,13.22,7.6,2.12,6.31-.02,12.71-4.21,17.61-9.86,11.53-30.3,11.77-43.76,8.62-7.74-1.81-15.34-5.14-21.91-9.51-4.85-3.17-16.41-13.77-17.22-19.41h0Z"/>
          <path class="cls-2" d="M470.99,368.67c-2.75-2.23-3.18-6.56.34-8.31.06-.03.11-.03.17-.02,0-.03,0-.06,0-.09.17.09.35.13.52.15.22.12.58.57.83.57,1.69.68,2.38-.83,2.18-2.06-.44-2.72-3.88-5.74-4.37-6.46-.86,2.11-3.02,3.7-5.43,3.88-.02.02-.04.04-.07.05-.08,0-.17.02-.26.02-.54-.07-1.08-.19-1.5-.46-.03-.02-.06-.04-.08-.06.02-.08.07-.17.13-.25,3.12-3.83-1.57-10.65-4.09-13.55-1.6-1.84-3.59-3.46-5.83-4.46-.73-.33-1.51-.5-2.3-.57,2.09,1.09,3.74,2.89,4.37,5.29.75,2.94-.84,6.6.47,9.27.49,1,2.13,1.06,1.42,2.29-2.19,2.71-5.54,2.23-8.42.49-1.29-.77-3.89-3.31-5.31-4.54-.46.5-.97.94-1.39,1.26-1.78,1.34-4.39,2.2-6.65,1.92-.64-.23-1.26-.5-1.88-.78-.03-.03-.06-.05-.09-.08-.02-.38.16-.74.64-.9,6.93-2.24,1.9-11.62-1.56-14.45-4.86-3.98-12.05-4.83-18.07-3.8-5.56.95-17.18,9.24-12.31,15.78.27.36.62.66.94.98.02-.03.04-.06.06-.1,1.18-1.79,3.31-2.73,5.39-2.6,3.25-.17,6.51,2.28,7.25,5.42,1.11,4.75-1.11,10.58-6.14,11.99-5.29,1.48-10.73-1.09-14.05-5.19-3.88-5.02-4.09-11.93-2.54-17.88,1.87-7.16,6.71-13.51,11.61-17.55,5.19-4.34,11.63-6.7,18.22-7.71,4.79-.74,11.61-1.24,14.98-5.23,1.82-2.15.46-4.61-.72-6.64-.03-.05-.05-.11-.07-.17.23.03.46.05.7,0,.03,0,.05.01.08.02.06,0,.13.02.19.03.44.15.88.3,1.33.46.02.02.03.04.05.06,3.55,1.59,7.32,6.01,6.37,10-.04.15-.09.28-.13.42,5.39,2.93,10.16,5.34,16.58,5.03,2.92-.14,5.78-1.04,8.26-2.58.69-.43,1.29-.9,1.81-1.41.04.08.07.15.11.23.12.13.2.27.23.43.07.29.17.55.3.8.03.09.05.13.04.1.01.03.02.06.04.08-.02.02-.05.04-.07.05,1.25,3.85-2.28,7.48-5.75,9.14,3.13-.7,6.37,1.37,8.8,3.2,1.78,1.34,3.4,2.92,5.4,3.93,2.8,1.4,4.93,0,6.96-1.88.04-.08.12-.15.2-.18.08-.07.15-.14.22-.21.26-.25.65.02.63.34-.04.62-.16,1.16-.35,1.64-.37,2.71-2.3,4.9-4.75,6.21-1.54.83-3.25.83-4.97.56,3.19,2.85,5.37,7.66,6.27,11.12,1.48,5.68,1.02,11.62-3.19,16.03-3.19,3.35-8.17,3.82-11.76.9h0Z"/>
          <path class="cls-4" d="M456.6,353.42s-.02-.22-.02-.23c-1.68-.43-2.48-1.93-2.4-3.76.07-1.68.43-3.29.25-4.97-.34-3.21-2.79-5.42-5.78-6.15-.92-.22-.83-1.32-.24-1.81.95-1.25,3.85-.67,5.07-.37,3.08.75,5.65,3.08,7.69,5.38,1.96,2.2,3.59,4.88,4.45,7.71.47,1.52,1.01,3.9.47,5.67,2.37-1.1,3.94-2.69,3.4-5.9-.12-.71.97-1.05,1.23-.36.27.72.37,1.44.33,2.13,1.05,1.88,2.57,3.41,3.79,5.18,1.2,1.76,2.24,3.98.68,5.75,1.41-.06,2.88-.79,3.85-1.94,3.07-3.64,1.65-8.94-1.64-13.55-2.22-3.11-4.09-4.24-5.89-5.29-.18-.15-.09-.52.18-.47,2,.4,4.16,2.38,5.8,4.15,5.47,5.91,6.84,16.37-1.65,18.55-1.9.4-4.03-.37-4.54-2.11-2.27,2.94-1.43,6.07,2.02,7.62,3.98,1.16,7.43-1.18,9.65-4.49,2.39-3.84,2.17-8.69,1.05-13.01-1.68-5.08-5.31-9.44-9.07-11-.34-.24-.73-.46-1.01-.77-.13-.13-.21-.23-.24-.32.1-1.29,5.25.45,6.62.25,2.8.38,5.1-1.06,6.53-3.18-2.18.99-5.27.52-7.34-.73-2.2-1.33-3.97-3.31-5.93-4.94-1.9-1.59-3.75-2.28-5.95-2.48-.43-.09-.86-.15-1.29-.17-.24-.05-.48-.11-.73-.15,0-.02.02-.04.03-.05-.04.02-.08.02-.12.04-.15-.02-.29-.05-.43-.07-.09,0-.17,0-.24.02-.04-.12,0-.26.13-.3,2.23-.7,4.11-1.89,5.56-3.74.59-.75.9-1.53,1.1-2.32-1.19,1.27-3.09,2.11-4.51,2.52-3.26.94-6.48.76-9.77.08-7.14-1.49-14.07-5.37-21.47-3.7-.43.15-.84.33-1.22.53-.6.33-1.13-.59-.61-1.01,2.73-2.22,6.52-1.51,9.4-3.32,2.76-1.73.83-5.88-.65-7.72-.74-.91-1.7-1.64-2.58-2.42.7,1.87.51,3.97-.81,5.82-2.17,3.06-6.71,4.15-10.13,4.94-4.16.97-8.43,1.17-12.52,2.43-7.55,2.32-13.88,7.32-18.05,13.99-3.29,5.26-5.37,11.4-4.6,17.62.82,6.57,5.55,11.64,12.17,12.43,6.36.77,10.52-6.82,7.75-11.99,1.66,4.84-1.57,11.57-7.51,10.29-.35-.07-.35-.5-.02-.6,3.18-.93,5.86-1.86,6.42-5.59.29-1.93-.39-3.99-1.66-5.42-1.94-2.17-5.48-1.55-7.02.37-1.21,1.98-.68,3.83.28,4.83.09.32-.38.49-.57.28,0,0-.02,0-.02,0-1.02-.33-1.56-1-1.77-1.79-3.66-3.22-3.43-8.97-1.4-12.72,2.56-4.55,8.73-9.16,15.06-10.15,7.3-1.14,15.48,1.11,20.45,6.66,3.16,3.53,4.8,11.04.87,14.39,1.2-.23,2.33-.66,3.46-1.25.95-.51,1.77-1.25,2.41-2.11.55-.73.49-1.59.87-2.37.14-.28.5-.31.65-.02.5.92.2,1.92-.41,2.82,2.37,2.15,7.92,8.78,12.17,4.35h0ZM471.64,318.93h0c-2.41,1.4-5.11,2.31-7.16,2.64-2.38.39-5.14.34-7.87-.12.27.09.53.18.8.26,2.54.77,5.18,1.2,7.83.97,2.17-.19,3.79-1.18,5.46-2.31.39-.42.71-.9.95-1.44h0Z"/>
          <path class="cls-2" d="M428.36,329.81c-4.95-1.27-9.47-1.62-14.63-1.08-2.75.41-5.52,1.42-8,2.47-.5.21-1.97,1.05-2.78,1.15-.04-.04-.09-.07-.09-.13,0-.38,1.19-1.21,1.99-1.7,2.39-1.49,6.6-2.86,7.48-3.08,3.76-.92,13.96-2.3,16.59,1.58.29.43-.08.92-.57.79h0Z"/>
          <path class="cls-2" d="M447.16,339.12c-2.46-1.25-4.31-3.98-2.77-6.69.12-.21.26-.41.4-.58-1.29.37-2.08,1.39-2.4,3.25-.07.43-.67.46-.77.02-.79-3.79,2.31-5.27,5.55-5.08-.34-.1-.69-.2-1.03-.3-.81-.19-1.62-.28-2.59-.05-1.84.44-2.77,1.79-3.49,3.41-.11.26-.49.23-.54-.05-.37-1.91,1.11-3.61,2.99-4.5-.42-.14-.83-.28-1.25-.41-1.89.32-2.95,1.32-3.93,3.03-.11.2-.38.05-.38-.14.02-1.59.91-2.78,2.17-3.54-.58-.17-1.16-.33-1.75-.47-.12.03-.23.06-.34.1-1.21.43-1.85,1.41-2.63,2.36-.14.17-.47.09-.43-.16.16-.94.87-1.92,1.79-2.65-.68-.13-1.37-.25-2.06-.36-.13.06-.26.13-.4.2-.7.37-1.25.99-1.62,1.68-.21.4-.88.19-.68-.25.26-.58.73-1.29,1.31-1.83-9.3-1.21-18.17-.94-26.98,2.88-.3.11-.58-.28-.3-.49,5.31-3.72,13.79-4.28,20.51-4.62,5.5.05,22.7,2.44,27.28,8.78.18.25-.05.53-.33.46-.53-.73-4.36-1.46-4.9-.85-1.07.14-1.89,1.11-2.13,2.12-.37,1.67.86,3.05,2.09,3.96.39.29.05,1.02-.41.78h0Z"/>
          <path class="cls-2" d="M469.82,334.47c-5.06-1.18-9.72-4.07-14.47-6.1-4.6-1.97-9.43-3.43-14.36-4.31-9.99-1.78-21.49-1.07-31.32,1.44-.32.09-.47-.44-.16-.56,9.44-3.5,20.8-3.82,30.68-2.44,4.77.67,9.38,2.1,13.82,3.9,5.4,2.18,10.87,4.73,16.08,7.32.47.23.22.86-.28.75h0Z"/>
          <path class="cls-2" d="M399.76,305.71c2.27,3.75,1.18,7.28-1.08,10.55-.34.49-.99.13-1.08-.34-.69-3.41-1.52-6.23-5.26-7.16-2.21-.55-4.54.61-6.26,1.88-5.47,4.05-3.81,11.41-1.64,16.72.55,1.05.2,1.42-.24,1.09-7.03-5.36-12.8-15.31-7.83-23.92.92-1.6,2.25.01,3.24,2.01,0-.07,0-.14.01-.21.32-4.25,2.19-6.8,4.57-10.15,1.34-1.88,2.59-3.8,3.42-5.97.54-1.43.5-2.94.07-4.39-.35-1.15-1.31-2.42-2.28-3.05,4.68-.74,11.97,12.43,7.17,18.53,2.76-.02,5.85,2.2,7.19,4.42h0Z"/>
          <path class="cls-4" d="M380,307.36c.6,1.38,1.01,2.75,1.01,3.27,0,.22-.3.24-.34.03-.29-1.57-1.37-3.47-2.87-4.3-3.74,7.49.5,15.81,6.12,21.28l-.03-.16c-4.56-6.52-3.98-15.09,2.94-19.66,4.52-2.26,9.91-.64,12.11,2.84,0-.84-.11-1.72-.45-2.68-.55-1.56-1.65-2.81-3.05-3.65-1.96-1.17-3.98-.42-6.06-.5-.37-.01-.6-.38-.37-.7.36-.5.77-.88,1.2-1.17,1.85-3.03,2.67-5.85,1.65-9.65-.42-1.56-1.14-2.84-1.99-4.02-.06.89-.25,1.79-.56,2.71-1.83,5.45-7.36,8.86-9.17,14.37-.24.68-.27,1.35-.15,1.99h0Z"/>
          <path class="cls-2" d="M385.51,305.71c-2.28,3.75-1.19,7.28,1.08,10.55.34.49.99.13,1.08-.34.69-3.41,1.52-6.23,5.26-7.17,2.21-.55,4.54.61,6.26,1.88,5.47,4.05,3.81,11.41,1.64,16.72-.55,1.05-.2,1.42.24,1.09,7.03-5.36,12.8-15.31,7.83-23.92-.92-1.6-2.25.01-3.25,2.01,0-.07,0-.14-.02-.21-.32-4.25-2.19-6.8-4.56-10.15-1.33-1.88-2.59-3.8-3.42-5.97-.54-1.43-.51-2.94-.07-4.39.34-1.15,1.31-2.43,2.28-3.05-4.69-.74-11.97,12.43-7.16,18.53-2.76-.01-5.85,2.2-7.19,4.42h0Z"/>
          <path class="cls-4" d="M405.26,307.36c-.6,1.38-1.01,2.75-1.01,3.27,0,.22.3.24.34.03.29-1.57,1.37-3.47,2.87-4.3,3.74,7.49-.5,15.81-6.12,21.28l.02-.16c4.56-6.52,3.98-15.09-2.94-19.66-4.52-2.26-9.91-.64-12.11,2.84,0-.84.11-1.72.44-2.68.55-1.56,1.64-2.81,3.05-3.65,1.96-1.17,3.98-.42,6.06-.49.37-.01.6-.39.37-.71-.36-.5-.77-.88-1.2-1.17-1.85-3.03-2.67-5.85-1.65-9.65.42-1.56,1.14-2.84,1.99-4.02.07.89.26,1.79.56,2.71,1.83,5.45,7.36,8.86,9.17,14.37.24.68.27,1.35.15,1.99h0Z"/>
          <path class="cls-2" d="M399.58,418.43c2.28-3.76,1.18-7.29-1.08-10.55-.34-.5-.99-.13-1.08.34-.69,3.41-1.51,6.23-5.26,7.17-2.21.56-4.54-.61-6.25-1.88-5.47-4.05-3.81-11.41-1.64-16.72.55-1.05.2-1.42-.23-1.08-7.03,5.35-12.8,15.31-7.83,23.91.92,1.6,2.25-.01,3.24-2.01,0,.07,0,.14.01.21.32,4.26,2.19,6.8,4.57,10.15,1.34,1.88,2.59,3.8,3.42,5.97.54,1.42.51,2.94.07,4.39-.34,1.15-1.3,2.43-2.28,3.06,4.68.74,11.97-12.43,7.17-18.53,2.76.02,5.84-2.2,7.18-4.41h0Z"/>
          <path class="cls-4" d="M379.83,416.78c.6-1.38,1.01-2.75,1.01-3.27,0-.22-.3-.24-.34-.03-.29,1.57-1.37,3.47-2.87,4.3-3.74-7.49.5-15.81,6.12-21.28l-.03.16c-4.56,6.52-3.98,15.09,2.94,19.66,4.52,2.26,9.91.64,12.11-2.84,0,.84-.1,1.72-.44,2.68-.55,1.56-1.65,2.81-3.05,3.65-1.96,1.17-3.99.42-6.07.49-.37.02-.6.39-.37.71.36.5.76.88,1.2,1.17,1.85,3.03,2.67,5.85,1.65,9.65-.42,1.55-1.13,2.84-1.99,4.02-.06-.89-.26-1.79-.56-2.71-1.83-5.45-7.35-8.86-9.17-14.37-.24-.69-.27-1.35-.15-1.99h0Z"/>
          <path class="cls-2" d="M385.34,418.43c-2.28-3.76-1.19-7.29,1.08-10.55.34-.5.99-.13,1.08.34.69,3.41,1.52,6.23,5.26,7.17,2.21.56,4.54-.61,6.26-1.88,5.47-4.05,3.81-11.41,1.64-16.72-.55-1.05-.2-1.42.24-1.08,7.03,5.35,12.8,15.31,7.83,23.91-.92,1.6-2.25-.01-3.25-2.01,0,.07,0,.14-.01.21-.32,4.26-2.19,6.8-4.56,10.15-1.34,1.88-2.59,3.8-3.42,5.97-.54,1.42-.5,2.94-.07,4.39.35,1.15,1.31,2.42,2.28,3.06-4.68.74-11.97-12.43-7.16-18.53-2.76.02-5.85-2.21-7.19-4.41h0Z"/>
          <path class="cls-4" d="M405.09,416.78c-.6-1.38-1.01-2.75-1.01-3.27,0-.22.3-.24.34-.02.29,1.57,1.37,3.47,2.87,4.3,3.74-7.49-.5-15.81-6.12-21.28l.03.16c4.56,6.52,3.98,15.09-2.94,19.66-4.52,2.26-9.91.64-12.11-2.84,0,.84.11,1.72.44,2.68.55,1.56,1.64,2.81,3.05,3.65,1.96,1.17,3.99.42,6.06.49.37.01.6.39.37.71-.36.5-.76.88-1.2,1.17-1.85,3.03-2.67,5.85-1.65,9.65.42,1.55,1.13,2.84,1.99,4.02.06-.89.25-1.79.56-2.71,1.83-5.45,7.35-8.86,9.17-14.37.24-.68.27-1.34.15-1.99h0Z"/>
        </g>
        <g>
          <polygon class="cls-6" points="370.63 574.8 371.1 579.79 184.8 578.86 370.63 574.8 370.63 574.8"/>
          <polygon class="cls-6" points="397.65 574.8 397.19 579.79 583.48 578.86 397.65 574.8 397.65 574.8"/>
          <path class="cls-2" d="M513.72,580.33c.84,1.1.75,3.23.54,4.61,1.68-1.36,4.69-2.03,6.54-1.66,2.82.57,9.03,4.24,10.57,7.73.02.11-.11.2-.21.15-5.72-2.41-6.63-1.5-11.96,1.27-.31.16-2,.5-3.15.88,1.82,1.53,4.46,2.13,6.75,2.32,1.46.12-2.29,1.62-2.58,1.71-5.27,1.59-8.69,2.05-14.9.23-3.11-.92-6.41-2.36-9.56-4.07,1,2.28,1.13,7.13-1.87,8.06-.84.26-1.57.15-2.15-.23-.7,3.37-5.4,9.71-9.57,8.04-.5-.06-1-.69-.21-.79,4.49-4.25,6.22-9.89,4.38-15.83-1.85-5.98-7.08-9.66-12.63-11.97-10.52-4.38-25.96-4.33-35.5,3.1-3.14,2.45-3.75,1.25-.49-1.58,8.88-7.7,20.16-10.17,32.48-7.55,6.65,1.42,12.3,4.62,18.37,7.5,4.91,2.33,12.39,5.66,17.1,3.5-3.75-4.38,4.09-10.56,8.03-5.42h0Z"/>
          <path class="cls-4" d="M506.16,582.99c-.39,3.22,4.06,3.78,2.62,3.87-.65.04-1.24.12-1.72-.04-3.79,2.26-8.78.83-12.73-.53-5.65-1.94-10.74-5.18-16.33-7.25-7.4-2.74-15.26-4.17-23.06-2.92,8.12-.6,16.61,1.21,23.23,4.75,10.27,5.49,14.73,19.43,5.42,27.54,3.6-.5,6.46-5.01,6.64-8.35.05-.95,1.34-.88,1.63-.14,1.91.71,3.2-1.22,3.18-3.14-.05-3.91-4.15-7.31-7.44-8.64-.66-.52-.02-1.57.75-1.25,9.83,4.09,19.39,14.04,31.09,9.39-1.26-.07-6.26-1.43-6.29-3.91.08-.53,1.05-.51,1.44-.49,4.57.33,7.51-3.81,12.16-3.78-1.23-.89-2.46-1.77-3.86-2.44-3.87-1.74-6.12-.54-9.44,1.46-.31.19-1.09.3-.79-.41.71-1.67,1.3-3.57.34-5.23-1.74-3.28-6.72-2.12-6.84,1.51h0Z"/>
          <path class="cls-3" d="M470.57,559.94c.91-.18,1.84-.25,2.78-.23,4.38-1.67,11.14.32,14.82,2.67,5.23,3.35,12.36,12.79,19.5,8.12.37-.24.44.38.45.36.01-.05.41,5.26-5.12,7.79-3.15,1.44-7.91.9-9.75-2.13-3.12,4.84-9.79.6-8.1-.71,5.23-3.32.54-8.88-2.38-11.3-3.31-2.75-7.81-4.58-12.17-4.27-.21.02-.22-.27-.02-.31h0Z"/>
          <path class="cls-4" d="M485.04,564.24h0c3.47,2.74,6.47,9,2.38,12.56-.06.05-.14.09-.22.13,2,1.45,5.61.71,5.59-2.13,2.78,3.29,6.18,4.12,10.01,2.1,1.97-1.04,3.4-2.67,4.29-4.6-4.67,2.34-10.03-.17-13.58-3.44-2.7-2.49-4.89-5.06-8.3-6.64-2.62-1.21-5.18-1.68-7.84-1.89,2.82.77,5.51,2.21,7.66,3.92h0Z"/>
          <path class="cls-2" d="M467.21,569.88c.54-1.42-.23-3.6-.88-4.98,2.18.88,5.54.64,7.35-.33,2.77-1.48,8.09-7.27,8.61-11.39-.02-.13-.17-.17-.27-.1-5.21,4.32-6.45,3.66-12.88,2.43-.37-.07-2.25.11-3.56.07,1.42-2.16,3.99-3.63,6.32-4.54,1.48-.58-2.9-.97-3.23-.97-6.01,0-9.72.59-15.62,4.45-2.97,1.94-5.96,4.48-8.71,7.26.33-2.7-1.06-7.8-4.49-7.83-.96,0-1.69.34-2.17.92-1.79-3.3-8.69-8.44-12.52-5.39-.5.22-.83,1.04.03.9,6.02,3.02,9.6,8.37,9.55,15.15-.05,6.83-4.36,12.32-9.42,16.47-9.6,7.88-25.75,12.68-38.04,7.92-4.05-1.57-4.31-.12,0,1.81,11.68,5.25,24.25,4.27,36.28-2.33,6.5-3.57,11.4-8.69,16.83-13.61,4.39-3.97,11.16-9.8,16.75-9.02-2.54,5.75,7.59,9.73,10.08,3.13h0Z"/>
          <path class="cls-4" d="M458.48,569.48c-1.42-3.24,3.05-5.22,1.52-4.86-.69.17-1.33.26-1.78.58-4.67-1.17-9.43,1.9-13.13,4.56-5.29,3.81-9.59,8.78-14.78,12.7-6.87,5.18-14.62,9.14-23.16,10.3,8.67-1.93,16.97-6.48,22.77-12.26,8.99-8.96,9.26-24.91-3.01-30.46,3.91-.61,8.32,3.21,9.55,6.62.35.97,1.68.5,1.75-.37,1.77-1.34,3.72.27,4.3,2.28,1.18,4.1-2.03,8.94-5.05,11.36-.52.75.47,1.65,1.18,1.07,8.97-7.37,15.83-20.75,29.51-19.57-1.29.47-6.08,3.46-5.34,6.06.25.53,1.25.21,1.66.06,4.67-1.78,9.04,1.61,13.89.12-1,1.31-2.01,2.62-3.26,3.76-3.49,3.03-6.21,2.49-10.31,1.44-.39-.1-1.23.04-.7.67,1.26,1.52,2.48,3.32,2,5.35-.78,3.97-6.35,4.32-7.61.57h0Z"/>
          <path class="cls-2" d="M467.21,582.41c.54,1.41-.23,3.6-.88,4.98,2.18-.89,5.54-.64,7.35.33,2.77,1.48,8.09,7.27,8.61,11.4-.02.12-.17.17-.27.1-5.21-4.31-6.45-3.66-12.88-2.43-.37.07-2.25-.11-3.56-.07,1.42,2.16,3.99,3.63,6.32,4.54,1.48.58-2.9.97-3.23.97-6.01,0-9.72-.59-15.62-4.45-2.97-1.94-5.96-4.48-8.71-7.26.33,2.7-1.06,7.8-4.49,7.83-.96,0-1.69-.33-2.17-.92-1.79,3.3-8.69,8.44-12.52,5.39-.5-.22-.83-1.03.03-.89,6.02-3.03,9.6-8.37,9.55-15.15-.05-6.83-4.36-12.32-9.42-16.47-9.6-7.88-25.75-12.68-38.04-7.92-4.05,1.57-4.31.12,0-1.8,11.68-5.25,24.25-4.28,36.28,2.32,6.5,3.57,11.4,8.69,16.83,13.61,4.39,3.98,11.16,9.81,16.75,9.02-2.54-5.75,7.59-9.73,10.08-3.12h0Z"/>
          <path class="cls-4" d="M458.48,582.81c-1.42,3.24,3.05,5.23,1.52,4.86-.69-.16-1.33-.26-1.78-.58-4.67,1.18-9.43-1.89-13.13-4.56-5.29-3.81-9.59-8.78-14.78-12.7-6.87-5.19-14.62-9.15-23.16-10.31,8.67,1.93,16.97,6.48,22.77,12.26,8.99,8.96,9.26,24.91-3.01,30.46,3.91.61,8.32-3.21,9.55-6.62.35-.97,1.68-.5,1.75.37,1.77,1.35,3.72-.27,4.3-2.28,1.18-4.1-2.03-8.94-5.05-11.36-.52-.75.47-1.65,1.18-1.07,8.97,7.36,15.83,20.75,29.51,19.57-1.29-.47-6.08-3.46-5.34-6.07.25-.52,1.25-.21,1.66-.06,4.67,1.78,9.04-1.61,13.89-.12-1-1.31-2.01-2.62-3.26-3.77-3.49-3.03-6.21-2.49-10.31-1.44-.39.1-1.23-.04-.7-.67,1.26-1.52,2.48-3.31,2-5.35-.78-3.97-6.35-4.33-7.61-.57h0Z"/>
          <path class="cls-2" d="M254.56,580.33c-.84,1.1-.75,3.23-.54,4.61-1.68-1.36-4.69-2.03-6.54-1.66-2.82.57-9.03,4.24-10.57,7.73-.02.11.11.2.21.15,5.72-2.41,6.63-1.5,11.96,1.27.31.16,2,.5,3.15.88-1.82,1.53-4.46,2.13-6.75,2.32-1.46.12,2.29,1.62,2.59,1.71,5.27,1.59,8.69,2.05,14.89.23,3.12-.92,6.42-2.36,9.57-4.07-1,2.28-1.14,7.13,1.87,8.06.84.26,1.57.15,2.15-.23.7,3.37,5.4,9.71,9.57,8.04.5-.06,1-.69.21-.79-4.49-4.25-6.21-9.89-4.38-15.83,1.85-5.98,7.08-9.66,12.62-11.97,10.52-4.38,25.97-4.33,35.5,3.1,3.14,2.45,3.75,1.25.49-1.58-8.88-7.7-20.17-10.17-32.48-7.55-6.65,1.42-12.31,4.62-18.38,7.5-4.91,2.33-12.39,5.66-17.1,3.5,3.76-4.38-4.09-10.56-8.03-5.42h0Z"/>
          <path class="cls-4" d="M262.13,582.99c.38,3.22-4.06,3.78-2.62,3.87.65.04,1.23.12,1.72-.04,3.79,2.26,8.78.83,12.73-.53,5.65-1.94,10.74-5.18,16.34-7.25,7.4-2.74,15.26-4.17,23.06-2.92-8.12-.6-16.61,1.21-23.23,4.75-10.27,5.49-14.72,19.43-5.42,27.54-3.59-.5-6.46-5.01-6.63-8.35-.05-.95-1.35-.88-1.63-.14-1.91.71-3.2-1.22-3.18-3.14.05-3.91,4.15-7.31,7.43-8.64.66-.52.02-1.57-.75-1.25-9.83,4.09-19.39,14.04-31.09,9.39,1.27-.07,6.26-1.43,6.3-3.91-.08-.53-1.05-.51-1.44-.49-4.58.33-7.52-3.81-12.16-3.78,1.22-.89,2.46-1.77,3.86-2.44,3.87-1.74,6.12-.54,9.44,1.46.31.19,1.08.3.79-.41-.71-1.67-1.3-3.57-.34-5.23,1.74-3.28,6.72-2.12,6.84,1.51h0Z"/>
          <path class="cls-3" d="M297.72,559.94c-.91-.18-1.84-.25-2.78-.23-4.39-1.67-11.15.32-14.83,2.67-5.23,3.35-12.36,12.79-19.5,8.12-.37-.24-.44.38-.45.36,0-.05-.41,5.26,5.12,7.79,3.14,1.44,7.91.9,9.75-2.13,3.12,4.84,9.79.6,8.1-.71-5.23-3.32-.54-8.88,2.38-11.3,3.32-2.75,7.81-4.58,12.17-4.27.21.02.22-.27.02-.31h0Z"/>
          <path class="cls-4" d="M283.24,564.24h0c-3.47,2.74-6.48,9-2.38,12.56.06.05.14.09.21.13-1.99,1.45-5.61.71-5.59-2.13-2.78,3.29-6.18,4.12-10.01,2.1-1.98-1.04-3.4-2.67-4.29-4.6,4.66,2.34,10.03-.17,13.58-3.44,2.7-2.49,4.89-5.06,8.3-6.64,2.62-1.21,5.18-1.68,7.84-1.89-2.82.77-5.5,2.21-7.66,3.92h0Z"/>
          <path class="cls-2" d="M301.07,569.88c-.54-1.42.23-3.6.88-4.98-2.18.88-5.54.64-7.35-.33-2.76-1.48-8.09-7.27-8.61-11.39.02-.13.17-.17.27-.1,5.21,4.32,6.45,3.66,12.89,2.43.37-.07,2.24.11,3.56.07-1.42-2.16-3.99-3.63-6.32-4.54-1.49-.58,2.9-.97,3.23-.97,6.01,0,9.72.59,15.62,4.45,2.96,1.94,5.96,4.48,8.71,7.26-.33-2.7,1.05-7.8,4.49-7.83.95,0,1.69.34,2.17.92,1.79-3.3,8.69-8.44,12.52-5.39.5.22.83,1.04-.03.9-6.02,3.02-9.6,8.37-9.55,15.15.05,6.83,4.36,12.32,9.42,16.47,9.6,7.88,25.75,12.68,38.03,7.92,4.05-1.57,4.31-.12.01,1.81-11.69,5.25-24.25,4.27-36.28-2.33-6.49-3.57-11.39-8.69-16.83-13.61-4.39-3.97-11.16-9.8-16.75-9.02,2.54,5.75-7.59,9.73-10.09,3.13h0Z"/>
          <path class="cls-4" d="M309.81,569.48c1.41-3.24-3.05-5.22-1.52-4.86.69.17,1.33.26,1.78.58,4.67-1.17,9.43,1.9,13.12,4.56,5.29,3.81,9.59,8.78,14.78,12.7,6.86,5.18,14.62,9.14,23.15,10.3-8.67-1.93-16.97-6.48-22.76-12.26-8.99-8.96-9.27-24.91,3-30.46-3.91-.61-8.32,3.21-9.55,6.62-.35.97-1.68.5-1.74-.37-1.77-1.34-3.73.27-4.3,2.28-1.18,4.1,2.03,8.94,5.05,11.36.52.75-.47,1.65-1.18,1.07-8.98-7.37-15.83-20.75-29.51-19.57,1.3.47,6.09,3.46,5.34,6.06-.25.53-1.26.21-1.66.06-4.67-1.78-9.04,1.61-13.89.12,1,1.31,2.01,2.62,3.26,3.76,3.49,3.03,6.22,2.49,10.31,1.44.38-.1,1.23.04.7.67-1.27,1.52-2.48,3.32-2,5.35.78,3.97,6.34,4.32,7.61.57h0Z"/>
          <path class="cls-2" d="M301.07,582.41c-.54,1.41.23,3.6.88,4.98-2.18-.89-5.54-.64-7.35.33-2.76,1.48-8.09,7.27-8.61,11.4.02.12.17.17.27.1,5.21-4.31,6.45-3.66,12.89-2.43.37.07,2.24-.11,3.56-.07-1.42,2.16-3.99,3.63-6.32,4.54-1.49.58,2.9.97,3.23.97,6.01,0,9.72-.59,15.62-4.45,2.96-1.94,5.96-4.48,8.71-7.26-.33,2.7,1.05,7.8,4.49,7.83.95,0,1.69-.33,2.17-.92,1.79,3.3,8.69,8.44,12.52,5.39.5-.22.83-1.03-.03-.89-6.02-3.03-9.6-8.37-9.55-15.15.05-6.83,4.36-12.32,9.42-16.47,9.6-7.88,25.75-12.68,38.03-7.92,4.05,1.57,4.31.12.01-1.8-11.69-5.25-24.25-4.28-36.28,2.32-6.49,3.57-11.39,8.69-16.83,13.61-4.39,3.98-11.16,9.81-16.75,9.02,2.54-5.75-7.59-9.73-10.09-3.12h0Z"/>
          <path class="cls-4" d="M309.81,582.81c1.41,3.24-3.05,5.23-1.52,4.86.69-.16,1.33-.26,1.78-.58,4.67,1.18,9.43-1.89,13.12-4.56,5.29-3.81,9.59-8.78,14.78-12.7,6.86-5.19,14.62-9.15,23.15-10.31-8.67,1.93-16.97,6.48-22.76,12.26-8.99,8.96-9.27,24.91,3,30.46-3.91.61-8.32-3.21-9.55-6.62-.35-.97-1.68-.5-1.74.37-1.77,1.35-3.73-.27-4.3-2.28-1.18-4.1,2.03-8.94,5.05-11.36.52-.75-.47-1.65-1.18-1.07-8.98,7.36-15.83,20.75-29.51,19.57,1.3-.47,6.09-3.46,5.34-6.07-.25-.52-1.26-.21-1.66-.06-4.67,1.78-9.04-1.61-13.89-.12,1-1.31,2.01-2.62,3.26-3.77,3.49-3.03,6.22-2.49,10.31-1.44.38.1,1.23-.04.7-.67-1.27-1.52-2.48-3.31-2-5.35.78-3.97,6.34-4.33,7.61-.57h0Z"/>
          <path class="cls-3" d="M395.01,578.4c-.74.57-1.55,1.05-2.4,1.46-3.19,3.48-10.17,4.74-14.55,4.28-6.22-.66-16.89-5.94-21.21,1.49-.22.38-.57-.15-.56-.13.01.05-2.74-4.55,1.1-9.32,2.18-2.71,6.72-4.38,9.74-2.48.63-5.77,8.54-4.96,7.61-3.02-3.21,5.34,3.52,8.23,7.24,9.1,4.23.98,9.1.6,12.88-1.65.18-.11.32.15.17.27h0Z"/>
          <path class="cls-4" d="M380.04,581.05h0c-4.36-.9-9.89-5.18-7.81-10.23.04-.08.08-.15.14-.21-2.45-.41-5.37,1.89-4.08,4.44-3.99-1.72-7.42-.93-9.96,2.62-1.31,1.83-1.86,3.93-1.79,6.07,3.14-4.2,9.11-4.37,13.78-3.02,3.55,1.02,6.69,2.35,10.47,2.24,2.9-.09,5.42-.82,7.91-1.84-2.89.58-5.95.49-8.66-.07h0Z"/>
          <path class="cls-3" d="M374.45,576.14c.74-.57,1.54-1.05,2.4-1.46,3.19-3.49,10.17-4.75,14.55-4.28,6.22.66,16.9,5.94,21.22-1.49.22-.38.57.15.56.13-.02-.05,2.74,4.55-1.1,9.31-2.18,2.71-6.72,4.38-9.74,2.48-.63,5.76-8.54,4.96-7.61,3.01,3.21-5.34-3.51-8.23-7.24-9.1-4.22-.98-9.09-.6-12.88,1.65-.18.11-.32-.15-.16-.27h0Z"/>
          <path class="cls-4" d="M389.41,573.49h0c4.36.9,9.89,5.18,7.8,10.23-.03.08-.08.15-.14.21,2.45.41,5.37-1.89,4.07-4.44,3.99,1.71,7.42.92,9.96-2.62,1.31-1.83,1.86-3.94,1.79-6.08-3.15,4.21-9.11,4.37-13.78,3.02-3.55-1.02-6.69-2.35-10.47-2.23-2.9.09-5.42.82-7.91,1.83,2.89-.57,5.96-.49,8.67.07h0Z"/>
          <path class="cls-3" d="M376.38,578.4c.74.57,1.55,1.05,2.4,1.46,3.19,3.48,10.18,4.74,14.55,4.28,6.22-.66,16.89-5.94,21.21,1.49.22.38.57-.15.57-.13-.02.05,2.74-4.55-1.1-9.32-2.19-2.71-6.72-4.38-9.74-2.48-.63-5.77-8.54-4.96-7.61-3.02,3.21,5.34-3.52,8.23-7.24,9.1-4.22.98-9.09.6-12.88-1.65-.18-.11-.32.15-.16.27h0Z"/>
          <path class="cls-4" d="M391.34,581.05h0c4.35-.9,9.89-5.18,7.8-10.23-.03-.08-.09-.15-.14-.21,2.45-.41,5.37,1.89,4.07,4.44,3.99-1.72,7.42-.93,9.96,2.62,1.31,1.83,1.86,3.93,1.79,6.07-3.14-4.2-9.1-4.37-13.78-3.02-3.55,1.02-6.69,2.35-10.47,2.24-2.9-.09-5.42-.82-7.91-1.84,2.89.58,5.95.49,8.67-.07h0Z"/>
          <path class="cls-3" d="M396.94,576.14c-.74-.57-1.55-1.05-2.4-1.46-3.19-3.49-10.17-4.75-14.55-4.28-6.22.66-16.89,5.94-21.21-1.49-.22-.38-.57.15-.57.13.02-.05-2.74,4.55,1.1,9.31,2.18,2.71,6.72,4.38,9.74,2.48.63,5.76,8.54,4.96,7.61,3.01-3.21-5.34,3.52-8.23,7.24-9.1,4.23-.98,9.1-.6,12.88,1.65.18.11.33-.15.17-.27h0Z"/>
          <path class="cls-4" d="M381.97,573.49h0c-4.35.9-9.89,5.18-7.8,10.23.03.08.08.15.14.21-2.45.41-5.37-1.89-4.07-4.44-3.99,1.71-7.42.92-9.96-2.62-1.31-1.83-1.86-3.94-1.79-6.08,3.14,4.21,9.11,4.37,13.78,3.02,3.55-1.02,6.68-2.35,10.46-2.23,2.9.09,5.42.82,7.91,1.83-2.89-.57-5.95-.49-8.67.07h0Z"/>
        </g>
      </g>
    </g>
  </g>
</svg>